
<svg width="80px" height="80px" viewBox="0 0 80 80" version="1.1" xmlns="http://www.w3.org/2000/svg" xmlns:xlink="http://www.w3.org/1999/xlink">
    <g id="DOMO-APP" stroke="none" stroke-width="1" fill="none" fill-rule="evenodd">
        <g id="Small-Copy" transform="translate(-512.000000, -1044.000000)" fill="#F986B7" fill-rule="nonzero">
            <g id="Bed-rooms-Copy" transform="translate(452.000000, 1044.000000)">
                <g id="bathroom-svgrepo-com" transform="translate(60.000000, 0.000000)">
                    <path d="M74.6666667,44.0893073 L10.6666667,44.0893073 L10.6666667,14.1637301 C10.6604194,11.8873843 11.5674285,9.70316323 13.1855,8.09798184 L13.2521667,8.03148055 C15.8244029,5.46939281 19.7319835,4.79344868 23.0188333,6.34201547 C19.9015553,11.5120706 20.7108219,18.1348438 24.9818333,22.4065641 L26.807,24.227203 L23.4475,27.5785351 L27.2185,31.3401802 L30.578,27.9890143 L30.578,27.9890143 L49.1928333,9.42069235 L49.1928333,9.42069235 L52.5523333,6.06952646 L48.7811667,2.30771515 L45.4215,5.65888104 L43.5963333,3.83824217 C39.0868435,-0.647493314 32.0071245,-1.27555772 26.7748333,2.34595339 C21.2680487,-1.12310651 14.0868363,-0.324488678 9.48116667,4.26917048 L9.4145,4.33567177 C6.79285319,6.93650368 5.32327032,10.4754785 5.33333333,14.1637301 L5.33333333,44.0893073 L0,44.0893073 L0,49.4094099 L5.33333333,49.4094099 L5.33333333,54.5133834 C5.33321749,54.9422345 5.40255515,55.3682882 5.53866667,55.775079 L10.5,70.6214903 C11.0430231,72.2516949 12.5722202,73.3512906 14.2943333,73.3498717 L16.4443333,73.3498717 L14.5,80 L20.0555,80 L22,73.3498717 L56.6833333,73.3498717 L58.6833333,80 L64.25,80 L62.25,73.3498717 L65.705,73.3498717 C67.4273585,73.3515774 68.9568997,72.2519275 69.5,70.6214903 L74.461,55.775079 C74.5971339,55.3682844 74.6665817,54.9422452 74.6666667,54.5133834 L74.6666667,49.4094099 L80,49.4094099 L80,44.0893073 L74.6666667,44.0893073 Z M28.7533333,7.60005348 C31.8126823,4.55492725 36.7658177,4.55492725 39.8251667,7.60005348 L41.65,9.42069235 L30.5785,20.4647266 L28.7533333,18.6444203 C25.7008175,15.5925852 25.7008175,10.6518886 28.7533333,7.60005348 L28.7533333,7.60005348 Z M69.3333333,54.2972542 L64.7446667,68.0297691 L15.2553333,68.0297691 L10.6666667,54.2972542 L10.6666667,49.4094099 L69.3333333,49.4094099 L69.3333333,54.2972542 Z" id="Shape"></path>
                </g>
            </g>
        </g>
    </g>
</svg>