
<svg width="90px" height="80px" viewBox="0 0 90 80" version="1.1" xmlns="http://www.w3.org/2000/svg" xmlns:xlink="http://www.w3.org/1999/xlink">
    <g id="DOMO-APP" stroke="none" stroke-width="1" fill="none" fill-rule="evenodd">
        <g id="Small-Copy" transform="translate(-212.000000, -1055.000000)" fill="#F986B7" fill-rule="nonzero">
            <g id="Bed-rooms" transform="translate(160.000000, 1055.000000)">
                <g id="bedroom-sleeping-svgrepo-com" transform="translate(52.000000, 0.000000)">
                    <path d="M82.2377352,78.6541968 C82.2377352,79.3929258 81.6371556,80 80.8900931,80 L8.73997439,80 C8.00023609,80 7.39233234,79.4002399 7.39233234,78.6541968 L7.39233234,37.7973685 C5.88355917,38.3751861 4.48464813,38.3825003 3.31278547,37.9948505 C2.39726777,37.6876563 1.62823291,37.1390952 1.06427401,36.4223087 C0.500315104,35.7128364 0.141432166,34.8424529 0.0315700421,33.8916137 C-0.129561073,32.4068417 0.317211564,30.7245878 1.57696392,29.152046 L1.57696392,29.152046 C1.64288119,29.0715904 1.71612261,28.9984489 1.79668816,28.9326216 L43.9837437,0.356247039 C44.4598129,-0.0826018159 45.1922271,-0.126486701 45.7195652,0.283105563 L87.9798622,28.800967 L87.9798622,28.800967 C88.0384553,28.8448518 88.0897243,28.8960509 88.1409933,28.9472499 C89.8401942,30.7757868 90.2649944,32.8018057 89.8548424,34.5206304 C89.6497665,35.3617573 89.2469387,36.1297428 88.6903039,36.7514454 C88.1336692,37.3804621 87.4232274,37.8631958 86.6102477,38.1557617 C85.3211988,38.6238672 83.7977774,38.6019247 82.2450593,37.87051 C82.2377352,49.2805802 82.2377352,67.2514408 82.2377352,78.6541968 L82.2377352,78.6541968 L82.2377352,78.6541968 Z M33.7445938,51.3651122 C35.4511187,51.3651122 36.8280574,52.7474861 36.8280574,54.4443684 C36.8280574,56.1485648 35.4437946,57.5236245 33.7445938,57.5236245 C32.0453929,57.5236245 30.6611302,56.1485648 30.6611302,54.4443684 C30.6611302,52.7474861 32.0453929,51.3651122 33.7445938,51.3651122 L33.7445938,51.3651122 L33.7445938,51.3651122 Z M42.5921568,46.8961681 L43.5003503,46.8961681 L43.5003503,47.1009642 L42.914419,47.7080384 L43.5223228,47.7080384 L43.5223228,47.9274629 L42.5408878,47.9274629 L42.5408878,47.7080384 L43.119495,47.1082783 L42.5994809,47.1082783 L42.5921568,46.8961681 L42.5921568,46.8961681 L42.5921568,46.8961681 Z M36.4032572,48.8124747 L38.3734512,48.8124747 L38.3734512,49.2659519 L37.1063747,50.5898126 L38.4173961,50.5898126 L38.4173961,51.0725463 L36.2714226,51.0725463 L36.2714226,50.6044409 L37.531175,49.2952085 L36.4032572,49.2952085 L36.4032572,48.8124747 L36.4032572,48.8124747 L36.4032572,48.8124747 Z M39.9481417,48.0225468 L41.3543769,48.0225468 L41.3543769,48.3443693 L40.4535074,49.2878943 L41.3909976,49.2878943 L41.3909976,49.6316593 L39.860252,49.6316593 L39.860252,49.3025226 L40.7537973,48.3736259 L39.9481417,48.3736259 L39.9481417,48.0225468 L39.9481417,48.0225468 L39.9481417,48.0225468 Z M24.7212513,51.4748245 L28.6396671,51.4748245 L28.6396671,63.0092352 L66.24181,63.0092352 L66.24181,69.343287 L65.8389822,69.343287 L65.8389822,72.517627 L61.9205664,72.517627 L61.9205664,69.343287 L28.6396671,69.343287 L28.6396671,72.517627 L24.7212513,72.517627 L24.7212513,69.343287 L23.7617888,69.343287 L23.7617888,63.0165493 L24.7212513,63.0165493 L24.7212513,51.4748245 L24.7212513,51.4748245 L24.7212513,51.4748245 Z M38.3441547,52.3598363 L61.9718354,52.3598363 C64.0225951,52.3598363 65.7071476,54.0347761 65.7071476,56.0900516 L65.7071476,61.8024008 C54.8307974,61.8024008 40.9881698,61.8024008 30.1118195,61.8024008 L30.1118195,59.2205067 C30.1118195,58.8182286 30.4414059,58.489092 30.8442337,58.489092 L38.3368305,58.489092 L38.3368305,52.3598363 L38.3441547,52.3598363 L38.3441547,52.3598363 Z M33.2026073,26.5920944 L56.7936673,26.5920944 L56.7936673,42.4564805 L33.2026073,42.4564805 L33.2026073,26.5920944 L33.2026073,26.5920944 L33.2026073,26.5920944 Z M41.2152182,30.9001273 C41.8963633,30.9001273 42.4529981,31.4560025 42.4529981,32.1362183 C42.4529981,32.816434 41.8963633,33.3723092 41.2152182,33.3723092 C40.534073,33.3723092 39.9774382,32.816434 39.9774382,32.1362183 C39.9847624,31.4486884 40.534073,30.9001273 41.2152182,30.9001273 L41.2152182,30.9001273 L41.2152182,30.9001273 Z M46.430007,36.2028843 L49.2131808,31.9314221 L51.8425476,38.5726681 L38.9520584,38.5726681 L38.9520584,37.7461695 L39.9847624,37.6949704 L41.0174664,35.1715895 L41.8377702,36.978184 L43.3831641,36.978184 L44.723482,33.5259063 L46.430007,36.2028843 L46.430007,36.2028843 L46.430007,36.2028843 Z M34.6234907,28.2231493 L55.3874321,28.2231493 L55.3874321,40.8254256 L34.6234907,40.8254256 L34.6234907,28.2231493 L34.6234907,28.2231493 Z M78.8539818,76.6135497 L78.8539818,36.2979682 C78.8539818,36.2101985 78.8613059,36.1224287 78.8759542,36.0419731 L45.1336339,13.5948542 L10.739465,36.0492872 C10.7687616,36.1589994 10.7834099,36.2760258 10.7834099,36.3930521 L10.7834099,76.6135497 C33.4736005,76.6135497 56.156467,76.6135497 78.8539818,76.6135497 L78.8539818,76.6135497 L78.8539818,76.6135497 Z" id="Shape"></path>
                </g>
            </g>
        </g>
    </g>
</svg>