
<svg width="30px" height="30px" viewBox="0 0 30 30" version="1.1" xmlns="http://www.w3.org/2000/svg" xmlns:xlink="http://www.w3.org/1999/xlink">
    <g id="DOMO-APP" stroke="none" stroke-width="1" fill="none" fill-rule="evenodd">
        <g id="Small" transform="translate(-1100.000000, -3240.000000)" fill="#FFFFFF" fill-rule="nonzero">
            <g id="FOOTER" transform="translate(-556.000000, 2868.000000)">
                <g id="Footer" transform="translate(616.000000, 372.000000)">
                    <g id="FACEBOOK" transform="translate(1040.000000, 0.000000)">
                        <path d="M16.5,26.907 C19.52595,26.52195 22.29165,24.99915 24.2352,22.6482 C26.17875,20.2971 27.15405,17.29425 26.9631,14.25 C26.772,11.205615 25.42905,8.348235 23.20695,6.25857 C20.9847,4.168905 18.0504,3.00378 15,2.99999665 C11.94594,2.99772 9.005925,4.16001 6.77901,6.25002 C4.552095,8.34003 3.20586,11.200485 3.01461,14.2485 C2.823375,17.29665 3.80151,20.30295 5.74971,22.65495 C7.697925,25.0068 10.46961,26.5275 13.5,26.907 L13.5,17.9999967 L10.5,17.9999967 L10.5,14.9999967 L13.5,14.9999967 L13.5,12.519 C13.5,10.5135 13.71,9.786 14.1,9.0525 C14.48415,8.326785 15.078,7.733535 15.804,7.35 C16.377,7.0425 17.0895,6.858 18.3345,6.7785 C18.828,6.747 19.467,6.786 20.2515,6.8985 L20.2515,9.7485 L19.5,9.7485 C18.1245,9.7485 17.556,9.813 17.217,9.9945 C17.01465,10.09854 16.8501,10.263225 16.746,10.4655 C16.566,10.8045 16.5,11.1405 16.5,12.5175 L16.5,14.9999967 L20.25,14.9999967 L19.5,17.9999967 L16.5,17.9999967 L16.5,26.907 Z M15,30 C6.7155,30 0,23.2845 0,15 C0,6.7155 6.7155,0 15,0 C23.2845,0 30,6.7155 30,15 C30,23.2845 23.2845,30 15,30 Z" id="Shape"></path>
                    </g>
                </g>
            </g>
        </g>
    </g>
</svg>