
<svg width="24px" height="26px" viewBox="0 0 24 26" version="1.1" xmlns="http://www.w3.org/2000/svg" xmlns:xlink="http://www.w3.org/1999/xlink">
    <g id="DOMO-APP" stroke="none" stroke-width="1" fill="none" fill-rule="evenodd">
        <g id="Small" transform="translate(-186.000000, -1113.000000)" fill="#FFFFFF">
            <g id="Nav-search" transform="translate(152.000000, 1028.718121)">
                <g id="Input-search" transform="translate(0.000000, 2.140940)">
                    <g id="search-svgrepo-com" transform="translate(34.972435, 83.114094)">
                        <path d="M2.30306567,11.1231683 C2.30306567,6.3451619 5.91198108,2.47181517 10.3637955,2.47181517 C14.8156214,2.47181517 18.4245253,6.3451619 18.4245253,11.1231683 C18.4245253,15.901187 14.8156214,19.7745214 10.3637955,19.7745214 C5.91198108,19.7745214 2.30306567,15.901187 2.30306567,11.1231683 Z M10.3637955,0 C4.64003246,0 0,4.98001546 0,11.1231683 C0,17.2663705 4.64003246,22.2463365 10.3637955,22.2463365 C12.8108028,22.2463365 15.0597464,21.3360906 16.8327615,19.8139468 L21.064875,24.3561544 C21.5145485,24.8387763 22.2436991,24.8387763 22.6933727,24.3561544 C23.1430463,23.8735325 23.1430463,23.0909558 22.6933727,22.6083339 L18.4612592,18.0661263 C19.8794871,16.1631994 20.727591,13.7494719 20.727591,11.1231683 C20.727591,4.98001546 16.0876046,0 10.3637955,0 Z" id="Shape"></path>
                    </g>
                </g>
            </g>
        </g>
    </g>
</svg>