<svg width="22" height="20" viewBox="0 0 22 20" fill="none" xmlns="http://www.w3.org/2000/svg">
<path d="M19 18.9999C19 19.2651 18.8946 19.5195 18.7071 19.707C18.5196 19.8946 18.2652 19.9999 18 19.9999H4C3.73478 19.9999 3.48043 19.8946 3.29289 19.707C3.10536 19.5195 3 19.2651 3 18.9999V9.99992H0L10.327 0.61192C10.5111 0.444398 10.7511 0.351562 11 0.351562C11.2489 0.351563 11.4889 0.444398 11.673 0.61192L22 9.99992H19V18.9999ZM11 13.9999C11.663 13.9999 12.2989 13.7365 12.7678 13.2677C13.2366 12.7988 13.5 12.163 13.5 11.4999C13.5 10.8369 13.2366 10.201 12.7678 9.73215C12.2989 9.26331 11.663 8.99992 11 8.99992C10.337 8.99992 9.70107 9.26331 9.23223 9.73215C8.76339 10.201 8.5 10.8369 8.5 11.4999C8.5 12.163 8.76339 12.7988 9.23223 13.2677C9.70107 13.7365 10.337 13.9999 11 13.9999Z" fill="#09121F"/>
</svg>
