
<svg width="28px" height="25px" viewBox="0 0 28 25" version="1.1" xmlns="http://www.w3.org/2000/svg" xmlns:xlink="http://www.w3.org/1999/xlink">
    <g id="DOMO-APP" stroke="none" stroke-width="1" fill="none" fill-rule="evenodd">
        <g id="Small" transform="translate(-718.000000, -422.000000)" fill="#D8D8D8" fill-rule="nonzero">
            <g id="Group-2" transform="translate(544.000000, 420.000000)">
                <g id="house" transform="translate(174.000000, 2.000000)">
                    <path d="M22.9090909,25 L5.09090909,25 C4.75335636,25 4.42963818,24.8660192 4.19095091,24.6273222 C3.95227636,24.3887524 3.81818182,24.065061 3.81818182,23.7276279 L3.81818182,12.2762788 L0,12.2762788 L13.1434545,0.331274805 C13.3777636,0.118127028 13.6832182,0 14,0 C14.3167818,0 14.6222364,0.118127028 14.8565455,0.331274805 L28,12.2762788 L24.1818182,12.2762788 L24.1818182,23.7276279 C24.1818182,24.065061 24.0476727,24.3887524 23.8090364,24.6273222 C23.5704,24.8660192 23.2466182,25 22.9090909,25 Z M6.36363636,22.4552558 L21.6363636,22.4552558 L21.6363636,9.93132244 L14,2.99180491 L6.36363636,9.93132244 L6.36363636,22.4552558 Z" id="Shape"></path>
                </g>
            </g>
        </g>
    </g>
</svg>