
<svg width="30px" height="30px" viewBox="0 0 30 30" version="1.1" xmlns="http://www.w3.org/2000/svg" xmlns:xlink="http://www.w3.org/1999/xlink">
    <g id="DOMO-APP" stroke="none" stroke-width="1" fill="none" fill-rule="evenodd">
        <g id="Small" transform="translate(-1170.000000, -3240.000000)" fill="#FFFFFF" fill-rule="nonzero">
            <g id="FOOTER" transform="translate(-556.000000, 2868.000000)">
                <g id="Footer" transform="translate(616.000000, 372.000000)">
                    <g id="LOGOS-FOOTER" transform="translate(1040.000000, 0.000000)">
                        <g id="INSTAGRAM" transform="translate(70.000000, 0.000000)">
                            <path d="M15,10.5 C13.8066,10.5 12.66195,10.974105 11.81802,11.81802 C10.974105,12.66195 10.5,13.8066 10.5,15 C10.5,16.1934 10.974105,17.33805 11.81802,18.18195 C12.66195,19.02585 13.8066,19.5 15,19.5 C16.1934,19.5 17.33805,19.02585 18.18195,18.18195 C19.02585,17.33805 19.5,16.1934 19.5,15 C19.5,13.8066 19.02585,12.66195 18.18195,11.81802 C17.33805,10.974105 16.1934,10.5 15,10.5 Z M15,7.5 C16.98915,7.5 18.89685,8.29017 20.30325,9.696705 C21.7098,11.103225 22.5,13.01085 22.5,15 C22.5,16.98915 21.7098,18.89685 20.30325,20.30325 C18.89685,21.7098 16.98915,22.5 15,22.5 C13.01085,22.5 11.103225,21.7098 9.696705,20.30325 C8.29017,18.89685 7.5,16.98915 7.5,15 C7.5,13.01085 8.29017,11.103225 9.696705,9.696705 C11.103225,8.29017 13.01085,7.5 15,7.5 L15,7.5 Z M24.75,7.125 C24.75,7.62228 24.55245,8.09919 24.20085,8.45082 C23.84925,8.80245 23.37225,9 22.875,9 C22.37775,9 21.90075,8.80245 21.54915,8.45082 C21.19755,8.09919 21,7.62228 21,7.125 C21,6.62772 21.19755,6.15081 21.54915,5.79918 C21.90075,5.44755 22.37775,5.25 22.875,5.25 C23.37225,5.25 23.84925,5.44755 24.20085,5.79918 C24.55245,6.15081 24.75,6.62772 24.75,7.125 L24.75,7.125 Z M15,3 C11.289,3 10.683,3.0105 8.9565,3.087 C7.7805,3.1425 6.9915,3.3 6.2595,3.585 C5.6085,3.837 5.139,4.1385 4.6395,4.6395 C4.170015,5.0931 3.809025,5.64687 3.5835,6.2595 C3.2985,6.9945 3.141,7.782 3.087,8.9565 C3.009,10.6125 3,11.1915 3,15 C3,18.711 3.0105,19.317 3.087,21.0435 C3.1425,22.218 3.3,23.0085 3.5835,23.739 C3.8385,24.3915 4.1385,24.861 4.6365,25.359 C5.142,25.863 5.6115,26.1645 6.2565,26.4135 C6.9975,26.7 7.7865,26.859 8.9565,26.913 C10.6125,26.991 11.1915,27 15,27 C18.711,27 19.317,26.9895 21.0435,26.913 C22.2165,26.8575 23.007,26.7 23.739,26.4165 C24.3885,26.163 24.861,25.8615 25.359,25.3635 C25.8645,24.858 26.166,24.3885 26.415,23.7435 C26.7,23.004 26.859,22.2135 26.913,21.0435 C26.991,19.3875 27,18.8085 27,15 C27,11.289 26.9895,10.683 26.913,8.9565 C26.8575,7.7835 26.7,6.9915 26.415,6.2595 C26.18895,5.6475 25.82865,5.09394 25.3605,4.6395 C24.90705,4.169775 24.35325,3.808755 23.7405,3.5835 C23.0055,3.2985 22.2165,3.141 21.0435,3.087 C19.3875,3.009 18.8085,3 15,3 Z M15,0 C19.0755,0 19.584,0.015 21.183,0.09 C22.7805,0.165 23.868,0.4155 24.825,0.7875 C25.815,1.1685 26.649,1.6845 27.483,2.517 C28.24575,3.26685 28.836,4.173885 29.2125,5.175 C29.583,6.1305 29.835,7.2195 29.91,8.817 C29.9805,10.416 30,10.9245 30,15 C30,19.0755 29.985,19.584 29.91,21.183 C29.835,22.7805 29.583,23.868 29.2125,24.825 C28.83705,25.8267 28.24665,26.7339 27.483,27.483 C26.733,28.24545 25.82595,28.8357 24.825,29.2125 C23.8695,29.583 22.7805,29.835 21.183,29.91 C19.584,29.9805 19.0755,30 15,30 C10.9245,30 10.416,29.985 8.817,29.91 C7.2195,29.835 6.132,29.583 5.175,29.2125 C4.173495,28.83675 3.266295,28.24635 2.517,27.483 C1.754115,26.7333 1.163895,25.82625 0.7875,24.825 C0.4155,23.8695 0.165,22.7805 0.09,21.183 C0.0195,19.584 0,19.0755 0,15 C0,10.9245 0.015,10.416 0.09,8.817 C0.165,7.218 0.4155,6.132 0.7875,5.175 C1.16286,4.17327 1.7532,3.26598 2.517,2.517 C3.266505,1.753845 4.173645,1.163595 5.175,0.7875 C6.132,0.4155 7.218,0.165 8.817,0.09 C10.416,0.0195 10.9245,0 15,0 Z" id="Shape"></path>
                        </g>
                    </g>
                </g>
            </g>
        </g>
    </g>
</svg>