
<svg width="30px" height="30px" viewBox="0 0 30 30" version="1.1" xmlns="http://www.w3.org/2000/svg" xmlns:xlink="http://www.w3.org/1999/xlink">
    <g id="DOMO-APP" stroke="none" stroke-width="1" fill="none" fill-rule="evenodd">
        <g id="Small" transform="translate(-1170.000000, -3305.000000)" fill="#FFFFFF" fill-rule="nonzero">
            <g id="FOOTER" transform="translate(-556.000000, 2868.000000)">
                <g id="Footer" transform="translate(616.000000, 372.000000)">
                    <g id="LOGOS-FOOTER" transform="translate(1040.000000, 0.000000)">
                        <g id="LINKEDIN" transform="translate(70.000000, 65.000000)">
                            <path d="M14.5714286,10.3714286 C16.1434286,8.76514286 18.1902857,7.71428571 20.5714286,7.71428571 C23.0720571,7.71428571 25.4701714,8.70764571 27.2384571,10.4758457 C29.0065714,12.2441143 30,14.6422286 30,17.1428571 L30,30 L26.5714286,30 L26.5714286,17.1428571 C26.5714286,15.5514857 25.9393714,14.0254286 24.8141143,12.9001714 C23.6888571,11.7749143 22.1628,11.1428571 20.5714286,11.1428571 C18.9800571,11.1428571 17.454,11.7749143 16.3287429,12.9001714 C15.2034857,14.0254286 14.5714286,15.5514857 14.5714286,17.1428571 L14.5714286,30 L11.1428571,30 L11.1428571,8.57142857 L14.5714286,8.57142857 L14.5714286,10.3714286 Z M2.57142857,5.14285714 C1.88945143,5.14285714 1.23538286,4.87193143 0.753154286,4.38970286 C0.270925714,3.90747429 0,3.25340571 0,2.57142857 C0,1.88945143 0.270925714,1.23538286 0.753154286,0.753154286 C1.23538286,0.270925714 1.88945143,0 2.57142857,0 C3.25340571,0 3.90747429,0.270925714 4.38970286,0.753154286 C4.87193143,1.23538286 5.14285714,1.88945143 5.14285714,2.57142857 C5.14285714,3.25340571 4.87193143,3.90747429 4.38970286,4.38970286 C3.90747429,4.87193143 3.25340571,5.14285714 2.57142857,5.14285714 Z M0.857142857,8.57142857 L4.28571429,8.57142857 L4.28571429,30 L0.857142857,30 L0.857142857,8.57142857 Z" id="Shape"></path>
                        </g>
                    </g>
                </g>
            </g>
        </g>
    </g>
</svg>