
<svg width="278px" height="70px" viewBox="0 0 278 70" version="1.1" xmlns="http://www.w3.org/2000/svg" xmlns:xlink="http://www.w3.org/1999/xlink">
    <g id="DOMO-APP" stroke="none" stroke-width="1" fill="none" fill-rule="evenodd">
        <g id="Small" transform="translate(-60.000000, -3240.000000)" fill="#FFFFFF" fill-rule="nonzero">
            <g id="FOOTER" transform="translate(-556.000000, 2868.000000)">
                <g id="DOMO-FOOTER-LOGO" transform="translate(616.000000, 372.000000)">
                    <path d="M16.3193,12.9304 C18.5487,12.9304 20.4214,11.0577 20.4214,8.82835 C20.4214,6.59897 18.5487,4.72629 16.3193,4.72629 C14.0899,4.72629 12.2172,6.59897 12.2172,8.82835 C12.2172,11.0577 14.0899,12.9304 16.3193,12.9304 Z M14.0899,41.9124 C14.0899,42.5366 14.6249,43.0716 15.2491,43.0716 C15.8734,43.0716 16.4084,42.5366 16.4084,41.9124 C16.4084,41.2881 15.8734,40.7531 15.2491,40.7531 C14.6249,40.7531 14.0899,41.2881 14.0899,41.9124 Z M22.2941,18.1026 C23.275,18.1026 23.9884,17.3 23.9884,16.4082 C23.9884,15.4273 23.1858,14.7139 22.2941,14.7139 C21.3131,14.7139 20.5997,15.5165 20.5997,16.4082 C20.5997,17.3 21.3131,18.1026 22.2941,18.1026 Z M8.82845,33.5299 C11.0579,33.5299 12.9306,31.6572 12.9306,29.4278 C12.9306,27.1984 11.0579,25.3258 8.82845,25.3258 C6.59905,25.3258 4.72634,27.1984 4.72634,29.4278 C4.81552,31.6572 6.59905,33.5299 8.82845,33.5299 Z M2.94282,23.899 C3.92376,23.899 4.63717,23.0964 4.63717,22.2046 C4.63717,21.2237 3.83458,20.5103 2.94282,20.5103 C1.96188,20.5103 1.24847,21.3129 1.24847,22.2046 C1.24847,23.1856 1.96188,23.899 2.94282,23.899 Z M2.31858,27.6443 C2.31858,27.0201 1.78353,26.485 1.15929,26.485 C0.535058,26.485 0,27.0201 0,27.6443 C0,28.2685 0.535058,28.8036 1.15929,28.8036 C1.78353,28.8036 2.31858,28.2685 2.31858,27.6443 Z M7.75834,18.0134 C9.36351,18.0134 10.612,16.7649 10.612,15.1598 C10.612,13.5546 9.36351,12.3062 7.75834,12.3062 C6.15316,12.3062 4.9047,13.5546 4.9047,15.1598 C4.9047,16.7649 6.15316,18.0134 7.75834,18.0134 Z M42.4479,2.31856 C43.0722,2.31856 43.6072,1.7835 43.6072,1.15928 C43.6072,0.535052 43.0722,0 42.4479,0 C41.8237,0 41.2886,0.535052 41.2886,1.15928 C41.2886,1.7835 41.8237,2.31856 42.4479,2.31856 Z M11.2362,41.4665 C11.2362,38.7021 9.00681,36.4727 6.24234,36.4727 C3.47788,36.4727 1.24847,38.7021 1.24847,41.4665 C1.24847,44.2309 3.47788,46.4603 6.24234,46.4603 C9.00681,46.4603 11.2362,44.2309 11.2362,41.4665 Z M61.2641,20.4211 C63.4935,20.4211 65.3662,18.5484 65.3662,16.3191 C65.3662,14.0897 63.4935,12.217 61.2641,12.217 C59.0347,12.217 57.162,14.0897 57.162,16.3191 C57.162,18.5484 58.9455,20.4211 61.2641,20.4211 Z M52.079,48.6005 C52.079,50.2057 53.3274,51.4541 54.9326,51.4541 C56.5378,51.4541 57.7862,50.2057 57.7862,48.6005 C57.7862,46.9953 56.5378,45.7469 54.9326,45.7469 C53.3274,45.7469 52.079,46.9953 52.079,48.6005 Z M54.9326,10.6119 C56.5378,10.6119 57.7862,9.3634 57.7862,7.75825 C57.7862,6.15309 56.5378,4.90464 54.9326,4.90464 C53.3274,4.90464 52.079,6.15309 52.079,7.75825 C52.079,9.3634 53.3274,10.6119 54.9326,10.6119 Z M48.6011,18.0134 C50.2063,18.0134 51.4547,16.7649 51.4547,15.1598 C51.4547,13.5546 50.2063,12.3062 48.6011,12.3062 C46.9959,12.3062 45.7474,13.5546 45.7474,15.1598 C45.7474,16.7649 46.9959,18.0134 48.6011,18.0134 Z M58.8564,28.0902 C58.8564,30.8546 61.0858,33.084 63.8502,33.084 C66.6147,33.084 68.8441,30.8546 68.8441,28.0902 C68.8441,25.3258 66.6147,23.0964 63.8502,23.0964 C61.0858,23.0964 58.8564,25.3258 58.8564,28.0902 Z M56.0027,27.6443 C56.0027,27.0201 55.4677,26.485 54.8434,26.485 C54.2192,26.485 53.6841,27.0201 53.6841,27.6443 C53.6841,28.2685 54.2192,28.8036 54.8434,28.8036 C55.4677,28.8036 56.0027,28.2685 56.0027,27.6443 Z M47.7985,4.54794 C48.7794,4.54794 49.4928,3.74536 49.4928,2.85361 C49.4928,1.96185 48.6903,1.15928 47.7985,1.15928 C46.8176,1.15928 46.1041,1.96185 46.1041,2.85361 C46.1041,3.74536 46.9067,4.54794 47.7985,4.54794 Z M53.1491,23.899 C54.13,23.899 54.8434,23.0964 54.8434,22.2046 C54.8434,21.2237 54.0408,20.5103 53.1491,20.5103 C52.2573,20.5103 51.4547,21.3129 51.4547,22.2046 C51.4547,23.1856 52.2573,23.899 53.1491,23.899 Z M18.0136,20.9562 C18.0136,19.351 16.7651,18.1026 15.16,18.1026 C13.5548,18.1026 12.3063,19.351 12.3063,20.9562 C12.3063,22.5613 13.5548,23.8098 15.16,23.8098 C16.7651,23.8098 18.0136,22.5613 18.0136,20.9562 Z M47.7985,51.4541 C46.8176,51.4541 46.1041,52.2567 46.1041,53.1484 C46.1041,54.1294 46.9067,54.8428 47.7985,54.8428 C48.7794,54.8428 49.4928,54.0402 49.4928,53.1484 C49.4928,52.2567 48.7794,51.4541 47.7985,51.4541 Z M42.002,58.3206 C39.2376,58.3206 37.0082,60.55 37.0082,63.3144 C37.0082,66.0788 39.2376,68.3082 42.002,68.3082 C44.7665,68.3082 46.9959,66.0788 46.9959,63.3144 C46.9959,60.55 44.7665,58.3206 42.002,58.3206 Z M53.7733,56.6263 C51.5439,56.6263 49.6712,58.4989 49.6712,60.7283 C49.6712,62.9577 51.5439,64.8304 53.7733,64.8304 C56.0027,64.8304 57.8754,62.9577 57.8754,60.7283 C57.8754,58.4989 56.0027,56.6263 53.7733,56.6263 Z M41.2886,54.8428 C41.2886,55.467 41.8237,56.002 42.4479,56.002 C43.0722,56.002 43.6072,55.467 43.6072,54.8428 C43.6072,54.2185 43.0722,53.6835 42.4479,53.6835 C41.8237,53.7727 41.2886,54.2185 41.2886,54.8428 Z M68.9333,40.7531 C68.309,40.7531 67.774,41.2881 67.774,41.9124 C67.774,42.5366 68.309,43.0716 68.9333,43.0716 C69.5575,43.0716 70.0926,42.5366 70.0926,41.9124 C70.0926,41.2881 69.4683,40.7531 68.9333,40.7531 Z M67.1498,45.6577 C66.1688,45.6577 65.4554,46.4603 65.4554,47.352 C65.4554,48.333 66.258,49.0464 67.1498,49.0464 C68.1307,49.0464 68.8441,48.2438 68.8441,47.352 C68.8441,46.3711 68.1307,45.6577 67.1498,45.6577 Z M40.1293,12.9304 C42.3587,12.9304 44.2314,11.0577 44.2314,8.82835 C44.2314,6.59897 42.3587,4.72629 40.1293,4.72629 C37.8999,4.72629 36.0272,6.59897 36.0272,8.82835 C36.0272,11.0577 37.8999,12.9304 40.1293,12.9304 Z M61.2641,36.0268 C59.0347,36.0268 57.162,37.8995 57.162,40.1289 C57.162,42.3582 59.0347,44.2309 61.2641,44.2309 C63.4935,44.2309 65.3662,42.3582 65.3662,40.1289 C65.2771,37.8995 63.4935,36.0268 61.2641,36.0268 Z M8.82845,49.1356 C6.59905,49.1356 4.72634,51.0082 4.72634,53.2376 C4.72634,55.467 6.59905,57.3397 8.82845,57.3397 C11.0579,57.3397 12.9306,55.467 12.9306,53.2376 C12.9306,51.0082 11.147,49.1356 8.82845,49.1356 Z M62.3342,51.5433 C60.7291,51.5433 59.4806,52.7917 59.4806,54.3969 C59.4806,56.002 60.7291,57.2505 62.3342,57.2505 C63.9394,57.2505 65.1879,56.002 65.1879,54.3969 C65.1879,52.7917 63.9394,51.5433 62.3342,51.5433 Z M16.9435,45.6577 C15.9626,45.6577 15.2491,46.4603 15.2491,47.352 C15.2491,48.333 16.0517,49.0464 16.9435,49.0464 C17.8353,49.0464 18.6378,48.2438 18.6378,47.352 C18.6378,46.3711 17.8353,45.6577 16.9435,45.6577 Z M21.4915,51.5433 C19.8863,51.5433 18.6378,52.7917 18.6378,54.3969 C18.6378,56.002 19.8863,57.2505 21.4915,57.2505 C23.0967,57.2505 24.3451,56.002 24.3451,54.3969 C24.3451,52.7917 23.0967,51.5433 21.4915,51.5433 Z M22.2941,65.0087 C21.3131,65.0087 20.5997,65.8113 20.5997,66.7031 C20.5997,67.5948 21.4023,68.3974 22.2941,68.3974 C23.275,68.3974 23.9884,67.5948 23.9884,66.7031 C23.9884,65.8113 23.1858,65.0087 22.2941,65.0087 Z M15.16,58.9448 C13.5548,58.9448 12.3063,60.1933 12.3063,61.7984 C12.3063,63.4036 13.5548,64.652 15.16,64.652 C16.7651,64.652 18.0136,63.4036 18.0136,61.7984 C18.0136,60.1933 16.7651,58.9448 15.16,58.9448 Z M26.5745,14.7139 C26.5745,15.3381 27.1096,15.8732 27.7338,15.8732 C28.3581,15.8732 28.8931,15.3381 28.8931,14.7139 C28.8931,14.0897 28.3581,13.5546 27.7338,13.5546 C27.0204,13.5546 26.5745,14.0897 26.5745,14.7139 Z M33.0844,6.15309 C33.0844,3.38866 30.855,1.15928 28.0905,1.15928 C25.3261,1.15928 23.0967,3.38866 23.0967,6.15309 C23.0967,8.91752 25.3261,11.1469 28.0905,11.1469 C30.855,11.2361 33.0844,9.0067 33.0844,6.15309 Z M27.6447,67.2381 C27.0204,67.2381 26.4854,67.7732 26.4854,68.3974 C26.4854,69.0216 27.0204,69.5567 27.6447,69.5567 C28.2689,69.5567 28.8039,69.0216 28.8039,68.3974 C28.8039,67.7732 28.2689,67.2381 27.6447,67.2381 Z M29.9632,56.6263 C27.7338,56.6263 25.8611,58.4989 25.8611,60.7283 C25.8611,62.9577 27.7338,64.8304 29.9632,64.8304 C32.1926,64.8304 34.0653,62.9577 34.0653,60.7283 C34.0653,58.4989 32.1926,56.6263 29.9632,56.6263 Z" id="Shape"></path>
                    <path d="M111.897,12.8443 C114.348,13.7685 116.558,15.2551 118.526,17.3043 C122.745,21.5633 124.855,26.9976 124.855,33.6071 C124.855,40.2166 122.745,45.671 118.526,49.9702 C116.558,52.0193 114.348,53.506 111.897,54.4301 C109.365,55.4748 106.774,55.9971 104.122,55.9971 L87.0655,55.9971 C86.503,55.9971 86.0108,55.7861 85.5889,55.3643 C85.167,54.9424 84.9561,54.4502 84.9561,53.8877 L84.9561,49.5483 C84.9561,48.9456 85.167,48.4333 85.5889,48.0114 C86.0108,47.5895 86.503,47.3786 87.0655,47.3786 L103.941,47.3786 C107.517,47.3786 110.42,46.0728 112.65,43.4611 C114.88,40.8494 115.995,37.5748 115.995,33.6372 C115.995,29.6996 114.88,26.425 112.65,23.8133 C110.42,21.2017 107.517,19.8958 103.941,19.8958 L87.0655,19.8958 C86.503,19.8958 86.0108,19.6849 85.5889,19.263 C85.167,18.8411 84.9561,18.3288 84.9561,17.7261 L84.9561,13.3868 C84.9561,12.8243 85.167,12.3321 85.5889,11.9102 C86.0108,11.4883 86.503,11.2773 87.0655,11.2773 L104.122,11.2773 C106.774,11.2773 109.365,11.7997 111.897,12.8443 L111.897,12.8443 Z M149.626,11.7595 C150.108,12.1613 150.349,12.7037 150.349,13.3868 L150.349,17.907 C150.349,18.4293 150.198,18.8813 149.897,19.263 C149.596,19.6447 149.184,19.8958 148.661,20.0164 C146.09,20.5387 143.9,21.7642 142.092,23.6928 C139.641,26.2643 138.415,29.6092 138.415,33.7276 C138.415,37.846 139.641,41.211 142.092,43.8227 C143.9,45.7111 146.09,46.9165 148.661,47.4389 C149.184,47.5594 149.596,47.8105 149.897,48.1922 C150.198,48.5739 150.349,49.026 150.349,49.5483 L150.349,54.0685 C150.349,54.7113 150.108,55.2538 149.626,55.6957 C149.184,56.0172 148.722,56.1779 148.239,56.1779 L147.878,56.1779 C143.217,55.4145 139.219,53.3051 135.884,49.8496 C131.705,45.5504 129.616,40.1965 129.616,33.7879 C129.616,27.3793 131.705,21.9852 135.884,17.6056 C139.139,14.2305 143.137,12.1412 147.878,11.3376 C148.521,11.2171 149.103,11.3577 149.626,11.7595 L149.626,11.7595 Z M168.55,17.6056 C172.729,21.9852 174.819,27.3793 174.819,33.7879 C174.819,40.1965 172.729,45.5504 168.55,49.8496 C165.215,53.3051 161.218,55.4145 156.557,56.1779 L156.195,56.1779 C155.713,56.1779 155.251,56.0172 154.809,55.6957 C154.327,55.2538 154.086,54.7113 154.086,54.0685 L154.086,49.5483 C154.086,49.026 154.236,48.5739 154.538,48.1922 C154.839,47.8105 155.251,47.5594 155.773,47.4389 C158.345,46.9165 160.535,45.7111 162.343,43.8227 C164.794,41.211 166.019,37.846 166.019,33.7276 C166.019,29.6092 164.794,26.2643 162.343,23.6928 C160.535,21.7642 158.345,20.5387 155.773,20.0164 C155.251,19.8958 154.839,19.6447 154.538,19.263 C154.236,18.8813 154.086,18.4293 154.086,17.907 L154.086,13.3868 C154.086,12.7037 154.337,12.1613 154.839,11.7595 C155.341,11.3577 155.914,11.2171 156.557,11.3376 C161.298,12.1412 165.296,14.2305 168.55,17.6056 L168.55,17.6056 Z M223.456,11.2773 C224.019,11.2773 224.511,11.4883 224.933,11.9102 C225.355,12.3321 225.566,12.8243 225.566,13.3868 L225.566,53.7671 C225.566,54.3296 225.355,54.8218 224.933,55.2437 C224.511,55.6656 224.019,55.8765 223.456,55.8765 L218.876,55.8765 C218.273,55.8765 217.771,55.6656 217.369,55.2437 C216.967,54.8218 216.766,54.3296 216.766,53.7671 L216.766,26.5255 L205.616,40.8695 C205.174,41.3918 204.612,41.653 203.929,41.653 C203.607,41.653 203.286,41.5827 202.965,41.4421 C202.643,41.3014 202.402,41.0905 202.241,40.8092 L182.473,14.6524 C182.232,14.3712 182.091,14.0196 182.051,13.5977 C182.011,13.1758 182.091,12.7941 182.292,12.4526 C182.493,12.1111 182.754,11.8298 183.075,11.6088 C183.397,11.3878 183.759,11.2773 184.16,11.2773 L189.464,11.2773 C190.147,11.2773 190.71,11.5586 191.152,12.1211 L203.929,28.9965 L216.405,12.1211 C216.847,11.5586 217.429,11.2773 218.153,11.2773 L223.456,11.2773 L223.456,11.2773 Z M188.741,40.5079 C189.303,40.5079 189.796,40.7088 190.217,41.1106 C190.639,41.5124 190.85,42.0146 190.85,42.6173 L190.85,53.7671 C190.85,54.3296 190.639,54.8218 190.217,55.2437 C189.796,55.6656 189.303,55.8765 188.741,55.8765 L184.16,55.8765 C183.598,55.8765 183.106,55.6656 182.684,55.2437 C182.262,54.8218 182.051,54.3296 182.051,53.7671 L182.051,42.6173 C182.051,42.0146 182.262,41.5124 182.684,41.1106 C183.106,40.7088 183.598,40.5079 184.16,40.5079 L188.741,40.5079 Z M252.808,11.7595 C253.29,12.1613 253.531,12.7037 253.531,13.3868 L253.531,17.907 C253.531,18.4293 253.38,18.8813 253.079,19.263 C252.778,19.6447 252.366,19.8958 251.843,20.0164 C249.272,20.5387 247.082,21.7642 245.274,23.6928 C242.823,26.2643 241.598,29.6092 241.598,33.7276 C241.598,37.846 242.823,41.211 245.274,43.8227 C247.082,45.7111 249.272,46.9165 251.843,47.4389 C252.366,47.5594 252.778,47.8105 253.079,48.1922 C253.38,48.5739 253.531,49.026 253.531,49.5483 L253.531,54.0685 C253.531,54.7113 253.29,55.2538 252.808,55.6957 C252.366,56.0172 251.904,56.1779 251.422,56.1779 L251.06,56.1779 C246.399,55.4145 242.401,53.3051 239.066,49.8496 C234.888,45.5504 232.798,40.1965 232.798,33.7879 C232.798,27.3793 234.888,21.9852 239.066,17.6056 C242.321,14.2305 246.319,12.1412 251.06,11.3376 C251.703,11.2171 252.285,11.3577 252.808,11.7595 L252.808,11.7595 Z M271.733,17.6056 C275.911,21.9852 278.001,27.3793 278.001,33.7879 C278.001,40.1965 275.911,45.5504 271.733,49.8496 C268.398,53.3051 264.4,55.4145 259.739,56.1779 L259.377,56.1779 C258.895,56.1779 258.433,56.0172 257.991,55.6957 C257.509,55.2538 257.268,54.7113 257.268,54.0685 L257.268,49.5483 C257.268,49.026 257.418,48.5739 257.72,48.1922 C258.021,47.8105 258.433,47.5594 258.955,47.4389 C261.527,46.9165 263.717,45.7111 265.525,43.8227 C267.976,41.211 269.201,37.846 269.201,33.7276 C269.201,29.6092 267.976,26.2643 265.525,23.6928 C263.717,21.7642 261.527,20.5387 258.955,20.0164 C258.433,19.8958 258.021,19.6447 257.72,19.263 C257.418,18.8813 257.268,18.4293 257.268,17.907 L257.268,13.3868 C257.268,12.7037 257.519,12.1613 258.021,11.7595 C258.523,11.3577 259.096,11.2171 259.739,11.3376 C264.48,12.1412 268.478,14.2305 271.733,17.6056 L271.733,17.6056 Z" id="Shape"></path>
                </g>
            </g>
        </g>
    </g>
</svg>