
<svg width="231px" height="55px" viewBox="0 0 231 55" version="1.1" xmlns="http://www.w3.org/2000/svg" xmlns:xlink="http://www.w3.org/1999/xlink">
    <defs>
        <linearGradient x1="0%" y1="0%" x2="100%" y2="0%" id="linearGradient-3n27hqj9qh-1">
            <stop stop-color="#EE2A7B" offset="0%"></stop>
            <stop stop-color="#FF7DB8" offset="100%"></stop>
        </linearGradient>
    </defs>
    <g id="DOMO-APP" stroke="none" stroke-width="1" fill="none" fill-rule="evenodd">
        <g id="Small" transform="translate(-60.000000, -44.000000)" fill-rule="nonzero">
            <g id="Logo-DOMO" transform="translate(60.000000, 44.000000)">
                <path d="M13.5038043,10.2243383 C15.3486095,10.2243383 16.8982423,8.74358093 16.8982423,6.98076315 C16.8982423,5.21794538 15.3486095,3.73717916 13.5038043,3.73717916 C11.6589992,3.73717916 10.1094546,5.21794538 10.1094546,6.98076315 C10.1094546,8.74358093 11.6589992,10.2243383 13.5038043,10.2243383 Z M11.6589992,33.141049 C11.6589992,33.6346348 12.1018018,34.0576324 12.6182873,34.0576324 C13.1348609,34.0576324 13.5775754,33.6346348 13.5775754,33.141049 C13.5775754,32.6473747 13.1348609,32.224377 12.6182873,32.224377 C12.1018018,32.224377 11.6589992,32.6473747 11.6589992,33.141049 Z M18.4477869,14.3141124 C19.2595329,14.3141124 19.8498776,13.6794388 19.8498776,12.9743542 C19.8498776,12.1986814 19.1857618,11.634596 18.4477869,11.634596 C17.6361291,11.634596 17.0457844,12.269181 17.0457844,12.9743542 C17.0457844,13.6794388 17.6361291,14.3141124 18.4477869,14.3141124 Z M7.30534371,26.5127578 C9.15016647,26.5127578 10.6997111,25.0320005 10.6997111,23.2692447 C10.6997111,21.5064004 9.15016647,20.025643 7.30534371,20.025643 C5.46055621,20.025643 3.91094105,21.5064004 3.91094105,23.2692447 C3.98472973,25.0320005 5.46055621,26.5127578 7.30534371,26.5127578 Z M2.43511457,18.8973837 C3.24681649,18.8973837 3.83715237,18.2627987 3.83715237,17.5577141 C3.83715237,16.7820413 3.17302781,16.2179559 2.43511457,16.2179559 C1.62341265,16.2179559 1.03307677,16.8525409 1.03307677,17.5577141 C1.03307677,18.3332983 1.62341265,18.8973837 2.43511457,18.8973837 Z M1.91857618,21.8589869 C1.91857618,21.3654012 1.47582648,20.942315 0.959288092,20.942315 C0.442747944,20.942315 0,21.3654012 0,21.8589869 C0,22.3525727 0.442747944,22.7756589 0.959288092,22.7756589 C1.47582648,22.7756589 1.91857618,22.3525727 1.91857618,21.8589869 Z M6.4198443,14.2436128 C7.74808461,14.2436128 8.78117019,13.2564412 8.78117019,11.9871826 C8.78117019,10.7179241 7.74808461,9.7307525 6.4198443,9.7307525 C5.091604,9.7307525 4.05852722,10.7179241 4.05852722,11.9871826 C4.05852722,13.2564412 5.091604,14.2436128 6.4198443,14.2436128 Z M35.1246279,1.83333562 C35.6412015,1.83333562 36.083916,1.41025829 36.083916,0.916663647 C36.083916,0.423076973 35.6412015,0 35.1246279,0 C34.6081424,0 34.1653398,0.423076973 34.1653398,0.916663647 C34.1653398,1.41025829 34.6081424,1.83333562 35.1246279,1.83333562 Z M9.29770858,32.7884624 C9.29770858,30.6025319 7.45292107,28.8396876 5.16539268,28.8396876 C2.87786428,28.8396876 1.03307677,30.6025319 1.03307677,32.7884624 C1.03307677,34.9743044 2.87786428,36.7371487 5.16539268,36.7371487 C7.45292107,36.7371487 9.29770858,34.9743044 9.29770858,32.7884624 Z M50.6946387,16.1474563 C52.5394438,16.1474563 54.0890766,14.6666989 54.0890766,12.9038546 C54.0890766,11.1410103 52.5394438,9.6602529 50.6946387,9.6602529 C48.8498335,9.6602529 47.3002007,11.1410103 47.3002007,12.9038546 C47.3002007,14.6666989 48.7760625,16.1474563 50.6946387,16.1474563 Z M43.094105,38.4294935 C43.094105,39.6986635 44.1272523,40.685835 45.4554837,40.685835 C46.7837152,40.685835 47.8167744,39.6986635 47.8167744,38.4294935 C47.8167744,37.1602349 46.7837152,36.1730633 45.4554837,36.1730633 C44.1272523,36.1730633 43.094105,37.1602349 43.094105,38.4294935 Z M45.4554837,8.39102091 C46.7837152,8.39102091 47.8167744,7.40384048 47.8167744,6.1346085 C47.8167744,4.86538537 46.7837152,3.87820494 45.4554837,3.87820494 C44.1272523,3.87820494 43.094105,4.86538537 43.094105,6.1346085 C43.094105,7.40384048 44.1272523,8.39102091 45.4554837,8.39102091 Z M40.2162407,14.2436128 C41.5444722,14.2436128 42.5776195,13.2564412 42.5776195,11.9871826 C42.5776195,10.7179241 41.5444722,9.7307525 40.2162407,9.7307525 C38.8880092,9.7307525 37.8549501,10.7179241 37.8549501,11.9871826 C37.8549501,13.2564412 38.8880092,14.2436128 40.2162407,14.2436128 Z M48.7022914,22.211485 C48.7022914,24.3974155 50.5470966,26.1602598 52.8346161,26.1602598 C55.1221357,26.1602598 56.9669409,24.3974155 56.9669409,22.211485 C56.9669409,20.025643 55.1221357,18.2627987 52.8346161,18.2627987 C50.5470966,18.2627987 48.7022914,20.025643 48.7022914,22.211485 Z M46.3409126,21.8589869 C46.3409126,21.3654012 45.8981982,20.942315 45.3816246,20.942315 C44.8651391,20.942315 44.4223365,21.3654012 44.4223365,21.8589869 C44.4223365,22.3525727 44.8651391,22.7756589 45.3816246,22.7756589 C45.8981982,22.7756589 46.3409126,22.3525727 46.3409126,21.8589869 Z M39.5521249,3.59615339 C40.3638709,3.59615339 40.9542156,2.96153297 40.9542156,2.25641295 C40.9542156,1.55128407 40.2900999,0.916663647 39.5521249,0.916663647 C38.7404671,0.916663647 38.1501224,1.55128407 38.1501224,2.25641295 C38.1501224,2.96153297 38.8142382,3.59615339 39.5521249,3.59615339 Z M43.979622,18.8973837 C44.791368,18.8973837 45.3816246,18.2627987 45.3816246,17.5577141 C45.3816246,16.7820413 44.7175088,16.2179559 43.979622,16.2179559 C43.2417352,16.2179559 42.5776195,16.8525409 42.5776195,17.5577141 C42.5776195,18.3332983 43.2417352,18.8973837 43.979622,18.8973837 Z M14.9058069,16.5705425 C14.9058069,15.3012839 13.8727477,14.3141124 12.5445163,14.3141124 C11.2162848,14.3141124 10.1832256,15.3012839 10.1832256,16.5705425 C10.1832256,17.8397125 11.2162848,18.826884 12.5445163,18.826884 C13.8727477,18.826884 14.9058069,17.8397125 14.9058069,16.5705425 Z M39.5521249,40.685835 C38.7404671,40.685835 38.1501224,41.3205086 38.1501224,42.0255932 C38.1501224,42.801266 38.8142382,43.3653513 39.5521249,43.3653513 C40.3638709,43.3653513 40.9542156,42.7307664 40.9542156,42.0255932 C40.9542156,41.3205086 40.3638709,40.685835 39.5521249,40.685835 Z M34.7556845,46.1153673 C32.4681649,46.1153673 30.6233598,47.8782116 30.6233598,50.0640536 C30.6233598,52.2499841 32.4681649,54.0127399 34.7556845,54.0127399 C37.0432041,54.0127399 38.8880092,52.2499841 38.8880092,50.0640536 C38.8880092,47.2062471 37.6134909,46.1153673 34.7556845,46.1153673 Z M44.4961957,44.7756091 C42.6513905,44.7756091 41.1017577,46.2563665 41.1017577,48.0192108 C41.1017577,49.7820551 42.6513905,51.2628125 44.4961957,51.2628125 C46.3409126,51.2628125 47.8905454,49.7820551 47.8905454,48.0192108 C47.8905454,46.2563665 46.3409126,44.7756091 44.4961957,44.7756091 Z M34.1653398,43.3653513 C34.1653398,43.8589371 34.6081424,44.2820233 35.1246279,44.2820233 C35.6412015,44.2820233 36.083916,43.8589371 36.083916,43.3653513 C36.083916,42.8717656 35.6412015,42.4486794 35.1246279,42.4486794 C34.6081424,42.519179 34.1653398,42.8717656 34.1653398,43.3653513 Z M57.0407119,32.224377 C56.5241383,32.224377 56.0814238,32.6473747 56.0814238,33.141049 C56.0814238,33.6346348 56.5241383,34.0576324 57.0407119,34.0576324 C57.5571974,34.0576324 58,33.6346348 58,33.141049 C58,32.6473747 57.4834264,32.224377 57.0407119,32.224377 Z M55.5648502,36.1025637 C54.7531923,36.1025637 54.1628476,36.7371487 54.1628476,37.4423219 C54.1628476,38.2179061 54.8269634,38.7819915 55.5648502,38.7819915 C56.3765962,38.7819915 56.9669409,38.1474065 56.9669409,37.4423219 C56.9669409,36.6666491 56.3765962,36.1025637 55.5648502,36.1025637 Z M33.2061398,10.2243383 C35.0508568,10.2243383 36.6004896,8.74358093 36.6004896,6.98076315 C36.6004896,5.21794538 35.0508568,3.73717916 33.2061398,3.73717916 C31.3613347,3.73717916 29.8117019,5.21794538 29.8117019,6.98076315 C29.8117019,8.74358093 31.3613347,10.2243383 33.2061398,10.2243383 Z M50.6946387,28.4871896 C48.8498335,28.4871896 47.3002007,29.9679469 47.3002007,31.7307913 C47.3002007,33.493547 48.8498335,34.9743044 50.6946387,34.9743044 C52.5394438,34.9743044 54.0890766,33.493547 54.0890766,31.7307913 C54.0152174,29.9679469 52.5394438,28.4871896 50.6946387,28.4871896 Z M7.30534371,38.8525797 C5.46055621,38.8525797 3.91094105,40.333337 3.91094105,42.0960928 C3.91094105,43.8589371 5.46055621,45.3396945 7.30534371,45.3396945 C9.15016647,45.3396945 10.6997111,43.8589371 10.6997111,42.0960928 C10.6997111,40.333337 9.22393753,38.8525797 7.30534371,38.8525797 Z M51.5801557,40.7564232 C50.2519242,40.7564232 49.2187769,41.7435948 49.2187769,43.0127648 C49.2187769,44.2820233 50.2519242,45.2691949 51.5801557,45.2691949 C52.9083872,45.2691949 53.9414463,44.2820233 53.9414463,43.0127648 C53.9414463,41.7435948 52.9083872,40.7564232 51.5801557,40.7564232 Z M14.020378,36.1025637 C13.208632,36.1025637 12.6182873,36.7371487 12.6182873,37.4423219 C12.6182873,38.2179061 13.2824031,38.7819915 14.020378,38.7819915 C14.7582648,38.7819915 15.4223805,38.1474065 15.4223805,37.4423219 C15.4223805,36.6666491 14.7582648,36.1025637 14.020378,36.1025637 Z M17.7836712,40.7564232 C16.4554397,40.7564232 15.4223805,41.7435948 15.4223805,43.0127648 C15.4223805,44.2820233 16.4554397,45.2691949 17.7836712,45.2691949 C19.1119908,45.2691949 20.1450499,44.2820233 20.1450499,43.0127648 C20.1450499,41.7435948 19.1119908,40.7564232 17.7836712,40.7564232 Z M18.4477869,51.4038117 C17.6361291,51.4038117 17.0457844,52.0383967 17.0457844,52.7435699 C17.0457844,53.4486545 17.7099001,54.083328 18.4477869,54.083328 C19.2595329,54.083328 19.8498776,53.4486545 19.8498776,52.7435699 C19.8498776,52.0383967 19.1857618,51.4038117 18.4477869,51.4038117 Z M12.5445163,46.608953 C11.2162848,46.608953 10.1832256,47.5961246 10.1832256,48.8653832 C10.1832256,50.1345532 11.2162848,51.1217247 12.5445163,51.1217247 C13.8727477,51.1217247 14.9058069,50.1345532 14.9058069,48.8653832 C14.9058069,47.5961246 13.8727477,46.608953 12.5445163,46.608953 Z M21.9898551,11.634596 C21.9898551,12.1281818 22.4325695,12.551268 22.9491432,12.551268 C23.4656287,12.551268 23.9083431,12.1281818 23.9083431,11.634596 C23.9083431,11.1410103 23.4656287,10.7179241 22.9491432,10.7179241 C22.3587985,10.7179241 21.9898551,11.1410103 21.9898551,11.634596 Z M27.3765521,4.86538537 C27.3765521,2.67948142 25.5318351,0.916663647 23.2442274,0.916663647 C20.9567078,0.916663647 19.1119908,2.67948142 19.1119908,4.86538537 C19.1119908,7.05128047 20.9567078,8.81408053 23.2442274,8.81408053 C25.5318351,8.88458013 27.3765521,7.12178893 27.3765521,4.86538537 Z M22.875284,53.1666561 C22.3587985,53.1666561 21.9159959,53.5897422 21.9159959,54.083328 C21.9159959,54.5769138 22.3587985,55 22.875284,55 C23.3918576,55 23.8345721,54.5769138 23.8345721,54.083328 C23.8345721,53.5897422 23.3918576,53.1666561 22.875284,53.1666561 Z M24.7938602,44.7756091 C22.9491432,44.7756091 21.3995104,46.2563665 21.3995104,48.0192108 C21.3995104,49.7820551 22.9491432,51.2628125 24.7938602,51.2628125 C26.6386653,51.2628125 28.1882981,49.7820551 28.1882981,48.0192108 C28.1882981,46.2563665 26.6386653,44.7756091 24.7938602,44.7756091 Z" id="Shape" fill="url(#linearGradient-3n27hqj9qh-1)"></path>
                <path d="M92.4687543,11.2214744 C94.5127977,11.9418736 96.356079,13.1006591 97.9977097,14.6980053 C101.516378,18.0179012 103.276156,22.2539464 103.276156,27.4060539 C103.276156,32.5581613 101.516378,36.8098352 97.9977097,40.1610755 C96.356079,41.7584217 94.5127977,42.9172945 92.4687543,43.6376064 C90.3571979,44.4519518 88.1958952,44.8590808 85.9844018,44.8590808 L71.7593342,44.8590808 C71.290208,44.8590808 70.8797115,44.6946751 70.5278447,44.3657763 C70.1759778,44.0369648 70,43.653235 70,43.2147615 L70,39.832264 C70,39.362446 70.1759778,38.9630876 70.5278447,38.6342761 C70.8797115,38.3053773 71.290208,38.1409716 71.7593342,38.1409716 L85.8336525,38.1409716 C88.8159483,38.1409716 91.2375313,37.1231054 93.0968024,35.0872856 C94.9569619,33.0514658 95.8870416,30.4989423 95.8870416,27.4295404 C95.8870416,24.3602258 94.9569619,21.807615 93.0968024,19.7717952 C91.2375313,17.7360627 88.8159483,16.7181092 85.8336525,16.7181092 L71.7593342,16.7181092 C71.290208,16.7181092 70.8797115,16.5537035 70.5278447,16.224892 C70.1759778,15.8959932 70,15.4966348 70,15.0269041 L70,11.6443193 C70,11.2058458 70.1759778,10.8222033 70.5278447,10.4933045 C70.8797115,10.1644057 71.290208,10 71.7593342,10 L85.9844018,10 C88.1958952,10 90.3571979,10.4072163 92.4687543,11.2214744 Z M123.935119,10.3758719 C124.336644,10.6890548 124.538294,11.1118997 124.538294,11.6443193 L124.538294,15.1678233 C124.538294,15.5749524 124.412152,15.9273377 124.160755,16.224892 C123.909358,16.522359 123.566463,16.7181092 123.130294,16.8121427 C120.98587,17.2192717 119.159467,18.1745363 117.651973,19.6778491 C115.60793,21.6823244 114.585464,24.2897662 114.585464,27.5 C114.585464,30.7103211 115.60793,33.3333915 117.651973,35.369124 C119.159467,36.8411796 120.98587,37.7808156 123.130294,38.1879447 C123.566463,38.2818908 123.909358,38.477641 124.160755,38.7751953 C124.412152,39.0727496 124.538294,39.4250476 124.538294,39.832264 L124.538294,43.355768 C124.538294,43.8568432 124.336644,44.2796881 123.935119,44.6242155 C123.566463,44.8747967 123.180929,45 122.778516,45 L122.477373,45 C118.590048,44.4049787 115.255264,42.7606594 112.473908,40.0671293 C108.988996,36.715889 107.246984,32.5425327 107.246984,27.5469731 C107.246984,22.5515007 108.988996,18.3467999 112.473908,14.9328707 C115.188639,12.3020296 118.522535,10.6734262 122.477373,10.0469731 C123.013035,9.95302693 123.49895,10.062689 123.935119,10.3758719 Z M139.718048,14.9328707 C143.20296,18.3467999 144.945861,22.5515007 144.945861,27.5469731 C144.945861,32.5425327 143.20296,36.715889 139.718048,40.0671293 C136.936693,42.7606594 133.602796,44.4049787 129.715472,45 L129.41344,45 C129.011916,45 128.626381,44.8747967 128.257725,44.6242155 C127.855312,44.2796881 127.65455,43.8568432 127.65455,43.355768 L127.65455,39.832264 C127.65455,39.4250476 127.779804,39.0727496 128.031201,38.7751953 C128.282598,38.477641 128.626381,38.2818908 129.061662,38.1879447 C131.206975,37.7808156 133.03249,36.8411796 134.540871,35.369124 C136.584915,33.3333915 137.60738,30.7103211 137.60738,27.5 C137.60738,24.2897662 136.584915,21.6823244 134.540871,19.6778491 C133.03249,18.1745363 131.206975,17.2192717 129.061662,16.8121427 C128.626381,16.7181092 128.282598,16.522359 128.031201,16.224892 C127.779804,15.9273377 127.65455,15.5749524 127.65455,15.1678233 L127.65455,11.6443193 C127.65455,11.1118997 127.864196,10.6890548 128.282598,10.3758719 C128.701889,10.062689 129.178921,9.95302693 129.715472,10.0469731 C133.669421,10.6734262 137.004205,12.3020296 139.718048,14.9328707 Z M185.509596,10 C185.979522,10 186.389929,10.1644057 186.741707,10.4933045 C187.093485,10.8222033 187.269374,11.2058458 187.269374,11.6443193 L187.269374,43.1208153 C187.269374,43.5592888 187.093485,43.9430186 186.741707,44.2718301 C186.389929,44.6007289 185.979522,44.7651347 185.509596,44.7651347 L181.689784,44.7651347 C181.18699,44.7651347 180.768588,44.6007289 180.4328,44.2718301 C180.0979,43.9430186 179.930894,43.5592888 179.930894,43.1208153 L179.930894,21.8859325 L170.631873,33.0671817 C170.263217,33.4743107 169.793292,33.6779189 169.223873,33.6779189 C168.955598,33.6779189 168.688211,33.6230879 168.419936,33.5134259 C168.151661,33.4038511 167.950899,33.2394454 167.816761,33.0202086 L151.329388,12.6309284 C151.128626,12.4116916 151.011366,12.1376239 150.97761,11.8087251 C150.943853,11.4799136 151.011366,11.1823593 151.178372,10.9161495 C151.346266,10.6499396 151.563906,10.4307029 151.832182,10.2584392 C152.100457,10.0861755 152.4016,10 152.7365,10 L157.160375,10 C157.729793,10 158.19883,10.2192368 158.567487,10.6577103 L169.223873,23.8120903 L179.628863,10.6577103 C179.997519,10.2192368 180.483434,10 181.086609,10 L185.509596,10 Z M156.5572,32.785256 C157.026237,32.785256 157.436645,32.9418911 157.788423,33.255074 C158.140201,33.5682569 158.31609,33.9597573 158.31609,34.4295753 L158.31609,43.1208153 C158.31609,43.5592888 158.140201,43.9430186 157.788423,44.2718301 C157.436645,44.6007289 157.026237,44.7651347 156.5572,44.7651347 L152.7365,44.7651347 C152.267462,44.7651347 151.857055,44.6007289 151.505277,44.2718301 C151.153499,43.9430186 150.97761,43.5592888 150.97761,43.1208153 L150.97761,34.4295753 C150.97761,33.9597573 151.153499,33.5682569 151.505277,33.255074 C151.857055,32.9418911 152.267462,32.785256 152.7365,32.785256 L156.5572,32.785256 Z M209.989259,10.3758719 C210.391672,10.6890548 210.592434,11.1118997 210.592434,11.6443193 L210.592434,15.1678233 C210.592434,15.5749524 210.46718,15.9273377 210.215783,16.224892 C209.964386,16.522359 209.620603,16.7181092 209.185322,16.8121427 C207.040009,17.2192717 205.214494,18.1745363 203.706113,19.6778491 C201.662069,21.6823244 200.639604,24.2897662 200.639604,27.5 C200.639604,30.7103211 201.662069,33.3333915 203.706113,35.369124 C205.214494,36.8411796 207.040009,37.7808156 209.185322,38.1879447 C209.620603,38.2818908 209.964386,38.477641 210.215783,38.7751953 C210.46718,39.0727496 210.592434,39.4250476 210.592434,39.832264 L210.592434,43.355768 C210.592434,43.8568432 210.391672,44.2796881 209.989259,44.6242155 C209.620603,44.8747967 209.235068,45 208.833544,45 L208.531512,45 C204.644188,44.4049787 201.310291,42.7606594 198.528936,40.0671293 C195.044024,36.715889 193.301123,32.5425327 193.301123,27.5469731 C193.301123,22.5515007 195.044024,18.3467999 198.528936,14.9328707 C201.242778,12.3020296 204.577563,10.6734262 208.531512,10.0469731 C209.068063,9.95302693 209.553978,10.062689 209.989259,10.3758719 Z M225.772188,14.9328707 C229.257988,18.3467999 231,22.5515007 231,27.5469731 C231,32.5425327 229.257988,36.715889 225.772188,40.0671293 C222.990832,42.7606594 219.656936,44.4049787 215.769611,45 L215.468468,45 C215.066055,45 214.680521,44.8747967 214.311864,44.6242155 C213.91034,44.2796881 213.70869,43.8568432 213.70869,43.355768 L213.70869,39.832264 C213.70869,39.4250476 213.834832,39.0727496 214.086229,38.7751953 C214.337626,38.477641 214.680521,38.2818908 215.11669,38.1879447 C217.261114,37.7808156 219.087517,36.8411796 220.595011,35.369124 C222.639054,33.3333915 223.66152,30.7103211 223.66152,27.5 C223.66152,24.2897662 222.639054,21.6823244 220.595011,19.6778491 C219.087517,18.1745363 217.261114,17.2192717 215.11669,16.8121427 C214.680521,16.7181092 214.337626,16.522359 214.086229,16.224892 C213.834832,15.9273377 213.70869,15.5749524 213.70869,15.1678233 L213.70869,11.6443193 C213.70869,11.1118997 213.918335,10.6890548 214.337626,10.3758719 C214.756029,10.062689 215.233949,9.95302693 215.769611,10.0469731 C219.724449,10.6734262 223.058345,12.3020296 225.772188,14.9328707 Z" id="Shape" fill="#FFFFFF"></path>
            </g>
        </g>
    </g>
</svg>
