<svg width="261" height="63" viewBox="0 0 261 63" fill="none" xmlns="http://www.w3.org/2000/svg">
<path d="M15.3213 11.6125C17.4144 11.6125 19.1726 9.9406 19.1726 7.95023C19.1726 5.95986 17.4144 4.28795 15.3213 4.28795C13.2282 4.28795 11.4701 5.95986 11.4701 7.95023C11.4701 9.9406 13.2282 11.6125 15.3213 11.6125ZM13.2282 37.4874C13.2282 38.0447 13.7306 38.5223 14.3166 38.5223C14.9027 38.5223 15.405 38.0447 15.405 37.4874C15.405 36.93 14.9027 36.4524 14.3166 36.4524C13.7306 36.4524 13.2282 36.93 13.2282 37.4874ZM20.9307 16.2302C21.8517 16.2302 22.5215 15.5136 22.5215 14.7175C22.5215 13.8417 21.768 13.2048 20.9307 13.2048C20.0098 13.2048 19.34 13.9213 19.34 14.7175C19.34 15.5136 20.0098 16.2302 20.9307 16.2302ZM8.28858 30.0035C10.3817 30.0035 12.1398 28.3316 12.1398 26.3413C12.1398 24.3509 10.3817 22.679 8.28858 22.679C6.1955 22.679 4.43732 24.3509 4.43732 26.3413C4.52104 28.3316 6.1955 30.0035 8.28858 30.0035ZM2.76286 21.4051C3.68381 21.4051 4.3536 20.6886 4.3536 19.8925C4.3536 19.0167 3.60009 18.3798 2.76286 18.3798C1.84191 18.3798 1.17212 19.0963 1.17212 19.8925C1.17212 20.7682 1.84191 21.4051 2.76286 21.4051ZM2.1768 24.749C2.1768 24.1917 1.67446 23.714 1.0884 23.714C0.502338 23.714 0 24.1917 0 24.749C0 25.3063 0.502338 25.784 1.0884 25.784C1.67446 25.784 2.1768 25.3063 2.1768 24.749ZM7.2839 16.1506C8.79091 16.1506 9.96304 15.036 9.96304 13.6029C9.96304 12.1698 8.79091 11.0552 7.2839 11.0552C5.77689 11.0552 4.60477 12.1698 4.60477 13.6029C4.60477 15.036 5.77689 16.1506 7.2839 16.1506ZM39.8521 2.13835C40.4382 2.13835 40.9405 1.66066 40.9405 1.10335C40.9405 0.546049 40.4382 0.0683594 39.8521 0.0683594C39.2661 0.0683594 38.7637 0.546049 38.7637 1.10335C38.7637 1.66066 39.2661 2.13835 39.8521 2.13835ZM10.5491 37.0893C10.5491 34.6212 8.45602 32.6308 5.86061 32.6308C3.2652 32.6308 1.17212 34.6212 1.17212 37.0893C1.17212 39.5573 3.2652 41.5477 5.86061 41.5477C8.45602 41.5477 10.5491 39.5573 10.5491 37.0893ZM57.5177 18.3002C59.6108 18.3002 61.369 16.6283 61.369 14.6379C61.369 12.6475 59.6108 10.9756 57.5177 10.9756C55.4246 10.9756 53.6664 12.6475 53.6664 14.6379C53.6664 16.6283 55.3409 18.3002 57.5177 18.3002ZM48.8942 43.4585C48.8942 44.8915 50.0664 46.0061 51.5734 46.0061C53.0804 46.0061 54.2525 44.8915 54.2525 43.4585C54.2525 42.0254 53.0804 40.9108 51.5734 40.9108C50.0664 40.9108 48.8942 42.0254 48.8942 43.4585ZM51.5734 9.54253C53.0804 9.54253 54.2525 8.42792 54.2525 6.99485C54.2525 5.56179 53.0804 4.44718 51.5734 4.44718C50.0664 4.44718 48.8942 5.56179 48.8942 6.99485C48.8942 8.42792 50.0664 9.54253 51.5734 9.54253ZM45.629 16.1506C47.136 16.1506 48.3082 15.036 48.3082 13.6029C48.3082 12.1698 47.136 11.0552 45.629 11.0552C44.122 11.0552 42.9499 12.1698 42.9499 13.6029C42.9499 15.036 44.122 16.1506 45.629 16.1506ZM55.2572 25.147C55.2572 27.6151 57.3503 29.6055 59.9457 29.6055C62.5411 29.6055 64.6342 27.6151 64.6342 25.147C64.6342 22.679 62.5411 20.6886 59.9457 20.6886C57.3503 20.6886 55.2572 22.679 55.2572 25.147ZM52.578 24.749C52.578 24.1917 52.0757 23.714 51.4896 23.714C50.9036 23.714 50.4012 24.1917 50.4012 24.749C50.4012 25.3063 50.9036 25.784 51.4896 25.784C52.0757 25.784 52.578 25.3063 52.578 24.749ZM44.8755 4.12872C45.7965 4.12872 46.4663 3.41218 46.4663 2.61604C46.4663 1.81989 45.7128 1.10335 44.8755 1.10335C43.9546 1.10335 43.2848 1.81989 43.2848 2.61604C43.2848 3.41218 44.0383 4.12872 44.8755 4.12872ZM49.8989 21.4051C50.8199 21.4051 51.4896 20.6886 51.4896 19.8925C51.4896 19.0167 50.7361 18.3798 49.8989 18.3798C49.0617 18.3798 48.3082 19.0963 48.3082 19.8925C48.3082 20.7682 49.0617 21.4051 49.8989 21.4051ZM16.912 18.7779C16.912 17.3448 15.7399 16.2302 14.2329 16.2302C12.7259 16.2302 11.5538 17.3448 11.5538 18.7779C11.5538 20.2109 12.7259 21.3255 14.2329 21.3255C15.7399 21.3255 16.912 20.2109 16.912 18.7779ZM44.8755 46.0061C43.9546 46.0061 43.2848 46.7227 43.2848 47.5188C43.2848 48.3946 44.0383 49.0315 44.8755 49.0315C45.7965 49.0315 46.4663 48.315 46.4663 47.5188C46.4663 46.7227 45.7965 46.0061 44.8755 46.0061ZM39.4335 52.1365C36.8381 52.1365 34.745 54.1269 34.745 56.5949C34.745 59.063 36.8381 61.0533 39.4335 61.0533C42.0289 61.0533 44.122 59.063 44.122 56.5949C44.122 54.1269 42.0289 52.1365 39.4335 52.1365ZM50.485 50.6238C48.3919 50.6238 46.6337 52.2957 46.6337 54.2861C46.6337 56.2765 48.3919 57.9484 50.485 57.9484C52.578 57.9484 54.3362 56.2765 54.3362 54.2861C54.3362 52.2957 52.578 50.6238 50.485 50.6238ZM38.7637 49.0315C38.7637 49.5888 39.2661 50.0665 39.8521 50.0665C40.4382 50.0665 40.9405 49.5888 40.9405 49.0315C40.9405 48.4742 40.4382 47.9965 39.8521 47.9965C39.2661 48.0761 38.7637 48.4742 38.7637 49.0315ZM64.7179 36.4524C64.1318 36.4524 63.6295 36.93 63.6295 37.4874C63.6295 38.0447 64.1318 38.5223 64.7179 38.5223C65.3039 38.5223 65.8063 38.0447 65.8063 37.4874C65.8063 36.93 65.2202 36.4524 64.7179 36.4524ZM63.0434 40.8312C62.1225 40.8312 61.4527 41.5477 61.4527 42.3439C61.4527 43.2196 62.2062 43.8565 63.0434 43.8565C63.9644 43.8565 64.6342 43.14 64.6342 42.3439C64.6342 41.4681 63.9644 40.8312 63.0434 40.8312ZM37.6754 11.6125C39.7684 11.6125 41.5266 9.9406 41.5266 7.95023C41.5266 5.95986 39.7684 4.28795 37.6754 4.28795C35.5823 4.28795 33.8241 5.95986 33.8241 7.95023C33.8241 9.9406 35.5823 11.6125 37.6754 11.6125ZM57.5177 32.2328C55.4246 32.2328 53.6664 33.9047 53.6664 35.8951C53.6664 37.8854 55.4246 39.5573 57.5177 39.5573C59.6108 39.5573 61.369 37.8854 61.369 35.8951C61.2852 33.9047 59.6108 32.2328 57.5177 32.2328ZM8.28858 43.9362C6.1955 43.9362 4.43732 45.6081 4.43732 47.5984C4.43732 49.5888 6.1955 51.2607 8.28858 51.2607C10.3817 51.2607 12.1398 49.5888 12.1398 47.5984C12.1398 45.6081 10.4654 43.9362 8.28858 43.9362ZM58.5224 46.0858C57.0154 46.0858 55.8432 47.2004 55.8432 48.6334C55.8432 50.0665 57.0154 51.1811 58.5224 51.1811C60.0294 51.1811 61.2015 50.0665 61.2015 48.6334C61.2015 47.2004 60.0294 46.0858 58.5224 46.0858ZM15.9074 40.8312C14.9864 40.8312 14.3166 41.5477 14.3166 42.3439C14.3166 43.2196 15.0701 43.8565 15.9074 43.8565C16.7446 43.8565 17.4981 43.14 17.4981 42.3439C17.4981 41.4681 16.7446 40.8312 15.9074 40.8312ZM20.1772 46.0858C18.6702 46.0858 17.4981 47.2004 17.4981 48.6334C17.4981 50.0665 18.6702 51.1811 20.1772 51.1811C21.6843 51.1811 22.8564 50.0665 22.8564 48.6334C22.8564 47.2004 21.6843 46.0858 20.1772 46.0858ZM20.9307 58.1076C20.0098 58.1076 19.34 58.8241 19.34 59.6203C19.34 60.4164 20.0935 61.133 20.9307 61.133C21.8517 61.133 22.5215 60.4164 22.5215 59.6203C22.5215 58.8241 21.768 58.1076 20.9307 58.1076ZM14.2329 52.6938C12.7259 52.6938 11.5538 53.8084 11.5538 55.2415C11.5538 56.6745 12.7259 57.7891 14.2329 57.7891C15.7399 57.7891 16.912 56.6745 16.912 55.2415C16.912 53.8084 15.7399 52.6938 14.2329 52.6938ZM24.9495 13.2048C24.9495 13.7621 25.4518 14.2398 26.0379 14.2398C26.6239 14.2398 27.1262 13.7621 27.1262 13.2048C27.1262 12.6475 26.6239 12.1698 26.0379 12.1698C25.3681 12.1698 24.9495 12.6475 24.9495 13.2048ZM31.0612 5.56179C31.0612 3.09372 28.9682 1.10335 26.3727 1.10335C23.7773 1.10335 21.6843 3.09372 21.6843 5.56179C21.6843 8.02985 23.7773 10.0202 26.3727 10.0202C28.9682 10.0998 31.0612 8.10946 31.0612 5.56179ZM25.9541 60.098C25.3681 60.098 24.8657 60.5757 24.8657 61.133C24.8657 61.6903 25.3681 62.168 25.9541 62.168C26.5402 62.168 27.0425 61.6903 27.0425 61.133C27.0425 60.5757 26.5402 60.098 25.9541 60.098ZM28.1309 50.6238C26.0379 50.6238 24.2797 52.2957 24.2797 54.2861C24.2797 56.2765 26.0379 57.9484 28.1309 57.9484C30.224 57.9484 31.9822 56.2765 31.9822 54.2861C31.9822 52.2957 30.224 50.6238 28.1309 50.6238Z" fill="url(#paint0_linear_5_33)"/>
<path d="M105.054 11.5357C107.355 12.3608 109.43 13.688 111.278 15.5175C115.239 19.3199 117.22 24.1716 117.22 30.0725C117.22 35.9734 115.239 40.843 111.278 44.6813C109.43 46.5108 107.355 47.8381 105.054 48.6631C102.677 49.5958 100.244 50.0621 97.7545 50.0621H81.7412C81.2131 50.0621 80.751 49.8738 80.3549 49.4971C79.9588 49.1205 79.7607 48.681 79.7607 48.1788V44.3047C79.7607 43.7666 79.9588 43.3092 80.3549 42.9326C80.751 42.5559 81.2131 42.3676 81.7412 42.3676H97.5848C100.942 42.3676 103.668 41.2018 105.761 38.8701C107.855 36.5384 108.902 33.6149 108.902 30.0994C108.902 26.584 107.855 23.6604 105.761 21.3287C103.668 18.9971 100.942 17.8312 97.5848 17.8312H81.7412C81.2131 17.8312 80.751 17.6429 80.3549 17.2663C79.9588 16.8896 79.7607 16.4322 79.7607 15.8942V12.02C79.7607 11.5178 79.9588 11.0784 80.3549 10.7017C80.751 10.325 81.2131 10.1367 81.7412 10.1367H97.7545C100.244 10.1367 102.677 10.6031 105.054 11.5357ZM140.476 10.5672C140.928 10.9259 141.155 11.4102 141.155 12.02V16.0556C141.155 16.5219 141.013 16.9255 140.73 17.2663C140.447 17.607 140.061 17.8312 139.57 17.9389C137.156 18.4052 135.1 19.4993 133.403 21.2211C131.102 23.5169 129.951 26.5033 129.951 30.1801C129.951 33.857 131.102 36.8613 133.403 39.1929C135.1 40.8789 137.156 41.9551 139.57 42.4214C140.061 42.529 140.447 42.7532 140.73 43.094C141.013 43.4348 141.155 43.8383 141.155 44.3047V48.3403C141.155 48.9142 140.928 49.3985 140.476 49.7931C140.061 50.0801 139.627 50.2235 139.174 50.2235H138.835C134.459 49.542 130.705 47.6587 127.574 44.5737C123.651 40.7354 121.69 35.9555 121.69 30.2339C121.69 24.5124 123.651 19.6966 127.574 15.7865C130.63 12.7733 134.383 10.908 138.835 10.1905C139.438 10.0829 139.985 10.2085 140.476 10.5672ZM158.243 15.7865C162.166 19.6966 164.128 24.5124 164.128 30.2339C164.128 35.9555 162.166 40.7354 158.243 44.5737C155.112 47.6587 151.359 49.542 146.983 50.2235H146.643C146.191 50.2235 145.757 50.0801 145.342 49.7931C144.889 49.3985 144.663 48.9142 144.663 48.3403V44.3047C144.663 43.8383 144.804 43.4348 145.087 43.094C145.37 42.7532 145.757 42.529 146.247 42.4214C148.662 41.9551 150.717 40.8789 152.415 39.1929C154.716 36.8613 155.867 33.857 155.867 30.1801C155.867 26.5033 154.716 23.5169 152.415 21.2211C150.717 19.4993 148.662 18.4052 146.247 17.9389C145.757 17.8312 145.37 17.607 145.087 17.2663C144.804 16.9255 144.663 16.5219 144.663 16.0556V12.02C144.663 11.4102 144.899 10.9259 145.37 10.5672C145.842 10.2085 146.379 10.0829 146.983 10.1905C151.434 10.908 155.188 12.7733 158.243 15.7865ZM209.791 10.1367C210.32 10.1367 210.782 10.325 211.178 10.7017C211.574 11.0784 211.772 11.5178 211.772 12.02V48.0712C211.772 48.5734 211.574 49.0129 211.178 49.3895C210.782 49.7662 210.32 49.9545 209.791 49.9545H205.491C204.925 49.9545 204.454 49.7662 204.076 49.3895C203.699 49.0129 203.511 48.5734 203.511 48.0712V23.7501L193.043 36.5564C192.628 37.0227 192.099 37.2559 191.458 37.2559C191.156 37.2559 190.855 37.1931 190.553 37.0675C190.251 36.942 190.025 36.7537 189.874 36.5026L171.314 13.15C171.088 12.8989 170.956 12.585 170.918 12.2083C170.88 11.8317 170.956 11.4909 171.144 11.186C171.333 10.8811 171.578 10.63 171.88 10.4327C172.182 10.2354 172.521 10.1367 172.898 10.1367H177.878C178.519 10.1367 179.047 10.3878 179.462 10.89L191.458 25.9562L203.171 10.89C203.586 10.3878 204.133 10.1367 204.812 10.1367H209.791ZM177.199 36.2335C177.727 36.2335 178.189 36.4129 178.585 36.7716C178.981 37.1303 179.179 37.5787 179.179 38.1168V48.0712C179.179 48.5734 178.981 49.0129 178.585 49.3895C178.189 49.7662 177.727 49.9545 177.199 49.9545H172.898C172.37 49.9545 171.908 49.7662 171.512 49.3895C171.116 49.0129 170.918 48.5734 170.918 48.0712V38.1168C170.918 37.5787 171.116 37.1303 171.512 36.7716C171.908 36.4129 172.37 36.2335 172.898 36.2335H177.199ZM237.348 10.5672C237.801 10.9259 238.027 11.4102 238.027 12.02V16.0556C238.027 16.5219 237.886 16.9255 237.603 17.2663C237.32 17.607 236.933 17.8312 236.443 17.9389C234.028 18.4052 231.973 19.4993 230.275 21.2211C227.974 23.5169 226.823 26.5033 226.823 30.1801C226.823 33.857 227.974 36.8613 230.275 39.1929C231.973 40.8789 234.028 41.9551 236.443 42.4214C236.933 42.529 237.32 42.7532 237.603 43.094C237.886 43.4348 238.027 43.8383 238.027 44.3047V48.3403C238.027 48.9142 237.801 49.3985 237.348 49.7931C236.933 50.0801 236.499 50.2235 236.047 50.2235H235.707C231.331 49.542 227.578 47.6587 224.447 44.5737C220.524 40.7354 218.562 35.9555 218.562 30.2339C218.562 24.5124 220.524 19.6966 224.447 15.7865C227.502 12.7733 231.256 10.908 235.707 10.1905C236.311 10.0829 236.858 10.2085 237.348 10.5672ZM255.115 15.7865C259.039 19.6966 261 24.5124 261 30.2339C261 35.9555 259.039 40.7354 255.115 44.5737C251.984 47.6587 248.231 49.542 243.855 50.2235H243.516C243.063 50.2235 242.629 50.0801 242.214 49.7931C241.762 49.3985 241.535 48.9142 241.535 48.3403V44.3047C241.535 43.8383 241.677 43.4348 241.96 43.094C242.243 42.7532 242.629 42.529 243.12 42.4214C245.534 41.9551 247.59 40.8789 249.287 39.1929C251.588 36.8613 252.739 33.857 252.739 30.1801C252.739 26.5033 251.588 23.5169 249.287 21.2211C247.59 19.4993 245.534 18.4052 243.12 17.9389C242.629 17.8312 242.243 17.607 241.96 17.2663C241.677 16.9255 241.535 16.5219 241.535 16.0556V12.02C241.535 11.4102 241.771 10.9259 242.243 10.5672C242.714 10.2085 243.252 10.0829 243.855 10.1905C248.307 10.908 252.06 12.7733 255.115 15.7865Z" fill="white"/>
<defs>
<linearGradient id="paint0_linear_5_33" x1="0" y1="0.0683594" x2="65.8063" y2="0.0683594" gradientUnits="userSpaceOnUse">
<stop stop-color="#EE2A7B"/>
<stop offset="1" stop-color="#FF7DB8"/>
</linearGradient>
</defs>
</svg>
