
<svg width="44px" height="38px" viewBox="0 0 44 38" version="1.1" xmlns="http://www.w3.org/2000/svg" xmlns:xlink="http://www.w3.org/1999/xlink">
    <g id="DOMO-APP" stroke="none" stroke-width="1" fill="none" fill-rule="evenodd">
        <g id="Small" transform="translate(-999.000000, -55.000000)" fill="#FFFFFF" fill-rule="nonzero">
            <g id="WALLET" transform="translate(999.000000, 55.000000)">
                <path d="M41.9047619,8.44444444 L44,8.44444444 L44,29.5555556 L41.9047619,29.5555556 L41.9047619,35.8888889 C41.9047619,36.4487556 41.6839238,36.9858222 41.2910667,37.3816556 C40.8982095,37.7774889 40.365181,38 39.8095238,38 L2.0952381,38 C1.53953905,38 1.00661524,37.7774889 0.613674286,37.3816556 C0.220754286,36.9858222 0,36.4487556 0,35.8888889 L0,2.11111111 C0,1.55120222 0.220754286,1.01424111 0.613674286,0.618323333 C1.00661524,0.222426667 1.53953905,0 2.0952381,0 L39.8095238,0 C40.365181,0 40.8982095,0.222426667 41.2910667,0.618323333 C41.6839238,1.01424111 41.9047619,1.55120222 41.9047619,2.11111111 L41.9047619,8.44444444 Z M37.7142857,29.5555556 L25.1428571,29.5555556 C22.3643619,29.5555556 19.6996381,28.4434222 17.7351429,26.4638333 C15.7703962,24.4844556 14.6666667,21.7995444 14.6666667,19 C14.6666667,16.2004556 15.7703962,13.51565 17.7351429,11.5361033 C19.6996381,9.55653556 22.3643619,8.44444444 25.1428571,8.44444444 L37.7142857,8.44444444 L37.7142857,4.22222222 L4.19047619,4.22222222 L4.19047619,33.7777778 L37.7142857,33.7777778 L37.7142857,29.5555556 Z M39.8095238,25.3333333 L39.8095238,12.6666667 L25.1428571,12.6666667 C23.4758857,12.6666667 21.8770095,13.3339256 20.6982286,14.5216578 C19.5194476,15.7094111 18.8571429,17.3204 18.8571429,19 C18.8571429,20.6796 19.5194476,22.2905889 20.6982286,23.4783 C21.8770095,24.6660111 23.4758857,25.3333333 25.1428571,25.3333333 L39.8095238,25.3333333 Z M25.1428571,16.8888889 L31.4285714,16.8888889 L31.4285714,21.1111111 L25.1428571,21.1111111 L25.1428571,16.8888889 Z" id="Shape"></path>
            </g>
        </g>
    </g>
</svg>