
<svg width="50px" height="79px" viewBox="0 0 50 79" version="1.1" xmlns="http://www.w3.org/2000/svg" xmlns:xlink="http://www.w3.org/1999/xlink">
    <g id="DOMO-APP" stroke="none" stroke-width="1" fill="none" fill-rule="evenodd">
        <g id="Small-Copy" transform="translate(-236.000000, -826.000000)" fill="#F986B7">
            <g id="Purchase-Price" transform="translate(161.000000, 826.000000)">
                <g id="dollar-symbol-svgrepo-com" transform="translate(75.000000, 0.000000)">
                    <path d="M29.1666667,4.15789474 C29.1666667,1.86157263 27.30125,0 25,0 C22.69875,0 20.8333333,1.86157263 20.8333333,4.15789474 L20.8333333,6.48298947 C15.958125,7.06600947 11.4723333,8.66958474 7.90058333,11.1315158 C3.31466667,14.2925553 0,19.0858595 0,24.9473684 C0,30.2444847 2.048625,35.1637316 6.57416667,38.6376526 C10.14325,41.3772895 14.9485,42.9863947 20.8333333,43.4874211 L20.8333333,64.1226368 C17.5670833,63.6004053 14.7519167,62.4844263 12.6367083,61.0262526 C9.68241667,58.9897158 8.33333333,56.5070368 8.33333333,54.0526316 C8.33333333,51.7562263 6.46783333,49.8947368 4.16666667,49.8947368 C1.8655,49.8947368 0,51.7562263 0,54.0526316 C0,59.9140158 3.31466667,64.7076526 7.90058333,67.8684842 C11.4723333,70.3303737 15.958125,71.9340737 20.8333333,72.5170105 L20.8333333,74.8421053 C20.8333333,77.1385105 22.69875,79 25,79 C27.30125,79 29.1666667,77.1385105 29.1666667,74.8421053 L29.1666667,72.5282368 C34.0091667,71.9735737 38.49,70.4451316 42.0725,68.0169211 C46.7175,64.8685632 50,60.0549684 50,54.0526316 C50,48.6199263 47.9766667,43.6670421 43.3991667,40.2118316 C39.8208333,37.5108632 35.01625,35.9799263 29.1666667,35.5042632 L29.1666667,14.8774879 C32.4329167,15.3994284 35.2483333,16.51574 37.3633333,17.9737058 C40.3175,20.0100763 41.6666667,22.4930879 41.6666667,24.9473684 C41.6666667,27.2436905 43.5320833,29.1052632 45.8333333,29.1052632 C48.1345833,29.1052632 50,27.2436905 50,24.9473684 C50,19.0858595 46.6854167,14.2925553 42.0995833,11.1315574 C38.5279167,8.66954316 34.0420833,7.06596789 29.1666667,6.48298947 L29.1666667,4.15789474 Z M20.8333333,14.8775295 C17.5670833,15.39947 14.7519167,16.5157816 12.6367083,17.9737474 C9.68241667,20.0100763 8.33333333,22.4930879 8.33333333,24.9473684 C8.33333333,27.9660416 9.40975,30.3229442 11.6550833,32.0465579 C13.512375,33.4723 16.4455,34.6701895 20.8333333,35.1350421 L20.8333333,14.8775295 Z M29.1666667,43.8533158 L29.1666667,64.1409316 C32.4629167,63.6424 35.2841667,62.5655053 37.3904167,61.1376842 C40.2854167,59.1755737 41.6666667,56.7128526 41.6666667,54.0526316 C41.6666667,50.8227789 40.565,48.4993474 38.3720833,46.8440895 C36.5241667,45.4495316 33.59,44.2969632 29.1666667,43.8533158 Z" id="Shape"></path>
                </g>
            </g>
        </g>
    </g>
</svg>