
<svg width="80px" height="80px" viewBox="0 0 80 80" version="1.1" xmlns="http://www.w3.org/2000/svg" xmlns:xlink="http://www.w3.org/1999/xlink">
    <g id="DOMO-APP" stroke="none" stroke-width="1" fill="none" fill-rule="evenodd">
        <g id="Small-Copy" transform="translate(-218.000000, -1282.000000)" fill="#F986B7" fill-rule="nonzero">
            <g id="Type-of-residence" transform="translate(161.000000, 1282.000000)">
                <g id="house-size-svgrepo-com" transform="translate(57.000000, 0.000000)">
                    <path d="M28.3603158,31 C27.6090789,31 27,31.6257336 27,32.3975124 L27,53.6024876 C27,54.3742664 27.6090789,55 28.3603158,55 L42.1202044,55 L55.8803904,55 L69.6399816,55 C70.3912185,55 71,54.3742664 71,53.6024876 L71,32.3975124 C71,31.6257336 70.3912185,31 69.6399816,31 C68.8887447,31 68.2799632,31.6257336 68.2799632,32.3975124 L68.2799632,52.2049751 L57.2407062,52.2049751 L57.2407062,32.3975124 C57.2407062,31.6257336 56.6319247,31 55.8806878,31 L42.1205018,31 C41.3692649,31 40.7604834,31.6257336 40.7604834,32.3975124 L40.7604834,52.2049751 L29.720929,52.2049751 L29.720929,32.3975124 C29.7206316,31.6257336 29.1115527,31 28.3603158,31 Z M43.4802228,33.7950249 L54.520372,33.7950249 L54.520372,52.2049751 L43.4802228,52.2049751 L43.4802228,33.7950249 Z" id="Shape"></path>
                    <path d="M20.356201,32.6003467 L48.9990946,4.29326237 L77.643799,32.600645 C77.9132947,32.8669811 78.2663853,33 78.6197777,33 C78.9731702,33 79.3262608,32.8666828 79.5957565,32.6003467 C80.1347478,32.0676745 80.1347478,31.2039462 79.5957565,30.671274 L65.1899602,16.435266 L65.1899602,2.36418965 C65.1899602,1.61081338 64.5722025,1 63.8098889,1 C63.0475752,1 62.4298175,1.61081338 62.4298175,2.36418965 L62.4298175,13.7074832 L49.9750734,1.39965329 C49.4357802,0.866981071 48.5621073,0.866981071 48.0228141,1.39965329 L18.4042435,30.671274 C17.8652522,31.2039462 17.8652522,32.0676745 18.4042435,32.6003467 C18.9432349,33.1330189 19.8172096,33.1330189 20.356201,32.6003467 Z" id="Path"></path>
                    <path d="M78.6199285,63 C77.8576149,63 77.2398572,63.6179624 77.2398572,64.3801562 L77.2398572,70.1204473 L20.7607463,70.1204473 L20.7607463,64.3801562 C20.7607463,63.6179624 20.1426868,63 19.3803731,63 C18.6180595,63 18,63.6179624 18,64.3801562 L18,78.6198438 C18,79.3820376 18.6180595,80 19.3803731,80 C20.1426868,80 20.7607463,79.3820376 20.7607463,78.6198438 L20.7607463,72.8804579 L77.2398572,72.8804579 L77.2398572,78.6198438 C77.2398572,79.3820376 77.8576149,80 78.6199285,80 C79.3822422,80 80,79.3820376 80,78.6198438 L80,64.3801562 C80,63.6179624 79.382544,63 78.6199285,63 Z" id="Path"></path>
                    <path d="M15.6198438,2.76041763 C16.3820376,2.76041763 17,2.14236414 17,1.38005792 C17,0.61775171 16.3820376,0 15.6198438,0 L1.38015619,0 C0.617962371,0 0.000301739439,0.618053494 0.000301739439,1.38035971 C0.000301739439,2.14266592 0.618264111,2.76071941 1.38045793,2.76071941 L7.11984381,2.76071941 L7.11984381,59.2392806 L1.38015619,59.2392806 C0.617962371,59.2392806 0,59.8573341 0,60.6196403 C0,61.3819465 0.617962371,62 1.38015619,62 L15.6198438,62 C16.3820376,62 17,61.3819465 17,60.6196403 C17,59.8573341 16.3820376,59.2392806 15.6198438,59.2392806 L9.87985446,59.2392806 L9.87985446,2.76041763 L15.6198438,2.76041763 Z" id="Path"></path>
                </g>
            </g>
        </g>
    </g>
</svg>