
<svg width="30px" height="30px" viewBox="0 0 30 30" version="1.1" xmlns="http://www.w3.org/2000/svg" xmlns:xlink="http://www.w3.org/1999/xlink">
    <g id="DOMO-APP" stroke="none" stroke-width="1" fill="none" fill-rule="evenodd">
        <g id="Small" transform="translate(-1100.000000, -3305.000000)" fill="#FFFFFF" fill-rule="nonzero">
            <g id="FOOTER" transform="translate(-556.000000, 2868.000000)">
                <g id="Footer" transform="translate(616.000000, 372.000000)">
                    <g id="LOGOS-FOOTER" transform="translate(1040.000000, 0.000000)">
                        <g id="TWITTER" transform="translate(0.000000, 65.000000)">
                            <path d="M20.7961422,3.60659872 C19.6594942,3.60659872 18.5681625,4.14387154 17.7569547,5.10340431 C16.9458966,6.06295509 16.4797213,7.36785046 16.4589326,8.73729856 L16.4170561,11.575673 C16.4146632,11.7281163 16.3854992,11.8780545 16.3315084,12.0159184 C16.2775176,12.1537823 16.2000461,12.276328 16.1040292,12.3756261 C16.0080124,12.4747439 15.895544,12.5484516 15.7742517,12.591703 C15.6529594,12.6349544 15.5253856,12.6466683 15.4000552,12.6263041 L13.06544,12.2442499 C9.99352908,11.73965 7.05020893,10.0348412 4.22653595,7.20007099 C3.33217342,13.1651447 5.07902196,17.2974576 9.28611525,20.4854477 L11.8989101,22.4642002 C12.023059,22.558272 12.1261949,22.6874856 12.1992993,22.8406678 C12.2724037,22.9938499 12.3132482,23.1661347 12.3182585,23.3427447 C12.3232836,23.5193546 12.2923249,23.6947031 12.2280744,23.8534719 C12.1638388,24.0122406 12.0682707,24.1497441 11.9497602,24.2537277 L9.56878166,26.3496195 C10.9851049,26.4559459 12.3296399,26.3802559 13.4453198,26.1135388 C20.501511,24.4159205 25.1931753,18.0183146 25.1931753,7.46498594 C25.1931753,6.60356181 23.6796387,3.60659872 20.7961422,3.60659872 L20.7961422,3.60659872 Z M13.4677536,8.67061929 C13.4939264,6.933444 13.9446971,5.24415164 14.7638315,3.81425967 C15.5828163,2.38434968 16.733822,1.27736561 18.0725241,0.631928264 C19.4112263,-0.0135090824 20.87825,-0.16874564 22.289937,0.185681731 C23.7014744,0.540109102 24.9948602,1.38843165 26.0082716,2.62443111 C27.0716357,2.6154204 27.9764674,2.93980605 30,1.46204918 C29.4989775,4.41756292 29.2522052,5.7006884 28.1843543,7.46498594 C28.1843543,21.2369411 21.1595704,27.9337028 14.0315908,29.6475403 C9.14403424,30.8225372 2.03699291,28.8924426 0,26.3297959 C1.03793912,26.2324802 5.25550153,25.686431 7.69331242,23.536475 C5.63089449,21.8983274 -2.57839631,16.0774071 2.81619504,0.427619366 C5.34822808,3.99045514 7.91615526,6.41613899 10.518481,7.70286875 C12.2503736,8.55888645 12.6751211,8.54086503 13.4692492,8.67242143 L13.4677536,8.67061929 Z" id="Shape"></path>
                        </g>
                    </g>
                </g>
            </g>
        </g>
    </g>
</svg>