
<svg width="80px" height="80px" viewBox="0 0 80 80" version="1.1" xmlns="http://www.w3.org/2000/svg" xmlns:xlink="http://www.w3.org/1999/xlink">
    <g id="DOMO-APP" stroke="none" stroke-width="1" fill="none" fill-rule="evenodd">
        <g id="Small-Copy" transform="translate(-510.000000, -820.000000)" fill="#F986B7" fill-rule="nonzero">
            <g id="Type-of-residence" transform="translate(452.000000, 820.000000)">
                <g id="mansion-svgrepo-com" transform="translate(58.000000, 0.000000)">
                    <path d="M79.9557556,32.9995604 L75.955182,16.9940898 C75.7989096,16.4001368 75.2675834,15.9781175 74.658121,15.9781175 L55.249088,15.9781175 L40.9814172,0.410296488 C40.4813455,-0.136765496 39.5280838,-0.136765496 39.0123849,0.410296488 L24.7447141,15.9781175 L5.32005388,15.9781175 C4.7105915,15.9781175 4.17926531,16.4001368 4.0229929,16.9940898 L0.038046519,32.9995604 C-0.0557169254,33.4059493 0.0224192783,33.8123382 0.288082371,34.1405754 C0.538118222,34.4688126 0.92879924,34.6563767 1.3351075,34.6563767 L2.66342296,34.6563767 L2.66342296,78.6714209 C2.66342296,79.406047 3.25725811,80 3.99173842,80 L25.322922,80 L30.6518111,80 L30.6518111,74.6700532 L31.9801266,74.6700532 C32.7146069,74.6700532 33.308442,74.0761002 33.308442,73.3414741 C33.308442,72.606848 32.7146069,72.012895 31.9801266,72.012895 L30.6518111,72.012895 L30.6518111,57.3360035 C30.6518111,56.6013774 31.2456462,56.0074244 31.9801266,56.0074244 L47.9824211,56.0074244 C48.7169014,56.0074244 49.3107365,56.6013774 49.3107365,57.3360035 L49.3107365,72.012895 L47.9824211,72.012895 C47.2479407,72.012895 46.6541056,72.606848 46.6541056,73.3414741 C46.6541056,74.0761002 47.2479407,74.6700532 47.9824211,74.6700532 L49.3107365,74.6700532 L49.3107365,80 L54.6396256,80 L75.9708092,80 C76.7052895,80 77.2991247,79.406047 77.2991247,78.6714209 L77.2991247,34.6563767 L78.6274401,34.6563767 C79.0337484,34.6563767 79.4244294,34.4688126 79.6744653,34.1405754 C79.9713828,33.8123382 80.0653025,33.390319 79.9557556,32.9995604 Z M23.9947628,77.3272114 L5.32021016,77.3272114 L5.32021016,74.6544229 L23.9947628,74.6544229 L23.9947628,77.3272114 Z M23.9947628,71.9972647 L5.32021016,71.9972647 L5.32021016,34.6563767 L23.9947628,34.6563767 L23.9947628,71.9972647 Z M23.9947628,31.9835881 L3.99189469,31.9835881 L3.03863301,31.9835881 L6.36723529,18.6509061 L23.9947628,18.6509061 L23.9947628,31.9835881 Z M46.6697328,50.6618473 L45.3414174,50.6618473 L34.668012,50.6618473 L33.3396965,50.6618473 C32.6052162,50.6618473 32.011381,50.0678943 32.011381,49.3332682 C32.011381,48.5986421 32.6052162,48.0046891 33.3396965,48.0046891 L33.3396965,38.6733747 C33.3396965,37.9387486 33.9335317,37.3447956 34.668012,37.3447956 L45.3414174,37.3447956 C46.0758977,37.3447956 46.6697328,37.9387486 46.6697328,38.6733747 L46.6697328,48.0046891 C47.4042132,48.0046891 47.9980483,48.5986421 47.9980483,49.3332682 C47.9980483,50.0678943 47.4042132,50.6618473 46.6697328,50.6618473 Z M39.9969011,29.3107996 C35.5900192,29.3107996 31.9957538,25.7158208 31.9957538,21.3080643 C31.9957538,16.9003077 35.5900192,13.305329 39.9969011,13.305329 C44.4037829,13.305329 47.9980483,16.9003077 47.9980483,21.3080643 C47.9980483,25.7314512 44.4037829,29.3107996 39.9969011,29.3107996 Z M74.6737482,77.3272114 L55.9991956,77.3272114 L55.9991956,74.6544229 L74.6737482,74.6544229 L74.6737482,77.3272114 Z M74.6737482,71.9972647 L55.9991956,71.9972647 L55.9991956,34.6563767 L74.6737482,34.6563767 L74.6737482,71.9972647 Z M76.0020637,31.9835881 L55.9991956,31.9835881 L55.9991956,18.6509061 L73.6267231,18.6509061 L76.9553254,31.9835881 L76.0020637,31.9835881 Z" id="Shape"></path>
                    <path d="M21.6703017,48.4061033 L21.6703017,39.2969484 C21.6703017,38.5798122 21.0759824,38 20.3409033,38 L9.65879667,38 C8.92371759,38 8.32939834,38.5798122 8.32939834,39.2969484 L8.32939834,48.4061033 C7.59431926,48.4061033 7,48.9859155 7,49.7030516 C7,50.4201878 7.59431926,51 8.32939834,51 L9.65879667,51 L20.3409033,51 L21.6703017,51 C22.4053807,51 22.9997,50.4201878 22.9997,49.7030516 C23.0154964,48.9859155 22.4053807,48.4061033 21.6703017,48.4061033 Z M13.6782716,48.4061033 L13.6626317,48.4061033 L11.003835,48.4061033 L11.003835,40.5938967 L13.6782716,40.5938967 L13.6782716,48.4061033 L13.6782716,48.4061033 Z M19.011505,48.4061033 L16.3370683,48.4061033 L16.3370683,40.5938967 L19.011505,40.5938967 L19.011505,48.4061033 L19.011505,48.4061033 Z" id="Shape"></path>
                    <path d="M21.6703017,63.4061033 L21.6703017,54.2969484 C21.6703017,53.5798122 21.0759824,53 20.3409033,53 L9.65879667,53 C8.92371759,53 8.32939834,53.5798122 8.32939834,54.2969484 L8.32939834,63.4061033 C7.59431926,63.4061033 7,63.9859155 7,64.7030516 C7,65.4201878 7.59431926,66 8.32939834,66 L9.65879667,66 L20.3409033,66 L21.6703017,66 C22.4053807,66 22.9997,65.4201878 22.9997,64.7030516 C23.0154964,63.9859155 22.4053807,63.4061033 21.6703017,63.4061033 Z M13.6782716,63.4061033 L13.6626317,63.4061033 L11.003835,63.4061033 L11.003835,55.5938967 L13.6782716,55.5938967 L13.6782716,63.4061033 L13.6782716,63.4061033 Z M19.011505,63.4061033 L16.3370683,63.4061033 L16.3370683,55.5938967 L19.011505,55.5938967 L19.011505,63.4061033 L19.011505,63.4061033 Z" id="Shape"></path>
                    <path d="M71.6705767,48.4061033 L71.6705767,39.2969484 C71.6705767,38.5798122 71.0762463,38 70.3411535,38 L59.6588465,38 C58.9237537,38 58.3294233,38.5798122 58.3294233,39.2969484 L58.3294233,48.4061033 C57.5943304,48.4061033 57,48.9859155 57,49.7030516 C57,50.4201878 57.5943304,51 58.3294233,51 L59.6588465,51 L70.3411535,51 L71.6705767,51 C72.4056696,51 73,50.4201878 73,49.7030516 C73,48.9859155 72.4056696,48.4061033 71.6705767,48.4061033 Z M63.6627566,48.4061033 L60.9882698,48.4061033 L60.9882698,40.5938967 L63.6627566,40.5938967 L63.6627566,48.4061033 Z M68.9960899,48.4061033 L66.3216031,48.4061033 L66.3216031,40.5938967 L68.9960899,40.5938967 L68.9960899,48.4061033 Z" id="Shape"></path>
                    <path d="M71.6705767,63.4061033 L71.6705767,54.2969484 C71.6705767,53.5798122 71.0762463,53 70.3411535,53 L59.6588465,53 C58.9237537,53 58.3294233,53.5798122 58.3294233,54.2969484 L58.3294233,63.4061033 C57.5943304,63.4061033 57,63.9859155 57,64.7030516 C57,65.4201878 57.5943304,66 58.3294233,66 L59.6588465,66 L70.3411535,66 L71.6705767,66 C72.4056696,66 73,65.4201878 73,64.7030516 C73,63.9859155 72.4056696,63.4061033 71.6705767,63.4061033 Z M63.6627566,63.4061033 L60.9882698,63.4061033 L60.9882698,55.5938967 L63.6627566,55.5938967 L63.6627566,63.4061033 Z M68.9960899,63.4061033 L66.3216031,63.4061033 L66.3216031,55.5938967 L68.9960899,55.5938967 L68.9960899,63.4061033 Z" id="Shape"></path>
                    <path d="M41,16 L41,20 L45,20 C44.4918033,18.0491803 42.9672131,16.5081967 41,16 Z" id="Path"></path>
                    <rect id="Rectangle" x="41" y="40" width="3" height="8"></rect>
                    <path d="M34,59 L34,59.0153734 L34,73.4509517 L34,80 L47,80 L47,73.4355783 L47,59 L34,59 L34,59 Z M44.4091442,69.5 L43.1137163,69.5 C42.3974209,69.5 41.8182884,68.9158126 41.8182884,68.193265 C41.8182884,67.4707174 42.3974209,66.88653 43.1137163,66.88653 L44.4091442,66.88653 C45.1254396,66.88653 45.7045721,67.4707174 45.7045721,68.193265 C45.7045721,68.9158126 45.1254396,69.5 44.4091442,69.5 Z" id="Shape"></path>
                    <rect id="Rectangle" x="36" y="40" width="3" height="8"></rect>
                    <path d="M35,20 L39,20 L39,16 C37.032623,16.5081967 35.5080328,18.0491803 35,20 Z" id="Path"></path>
                    <path d="M35,22 C35.5081967,23.9508197 37.0327869,25.4918033 39,26 L39,22 L35,22 Z" id="Path"></path>
                    <path d="M41,22 L41,26 C42.9508197,25.4918033 44.4918033,23.9508197 45,22 L41,22 Z" id="Path"></path>
                </g>
            </g>
        </g>
    </g>
</svg>